<?xml version="1.0" standalone="no"?>
<!DOCTYPE svg PUBLIC "-//W3C//DTD SVG 20010904//EN"
 "http://www.w3.org/TR/2001/REC-SVG-20010904/DTD/svg10.dtd">
<svg version="1.0" xmlns="http://www.w3.org/2000/svg"
 width="1000.000000pt" height="1000.000000pt" viewBox="0 0 1000.000000 1000.000000"
 preserveAspectRatio="xMidYMid meet">

<g transform="translate(0.000000,1000.000000) scale(0.100000,-0.100000)"
fill="#000000" stroke="none">
<path d="M1173 9969 c-34 -4 -70 -12 -81 -18 -11 -6 -54 -17 -96 -26 -42 -9
-91 -24 -109 -34 -17 -10 -49 -24 -71 -31 -21 -7 -54 -23 -74 -36 -19 -13 -40
-24 -47 -24 -7 0 -28 -12 -48 -27 -20 -16 -59 -44 -88 -63 -56 -38 -237 -216
-282 -277 -56 -77 -77 -109 -93 -143 -9 -19 -24 -46 -34 -60 -9 -14 -23 -43
-30 -65 -7 -22 -20 -53 -30 -70 -10 -16 -25 -61 -34 -100 -8 -38 -24 -101 -35
-140 -20 -69 -20 -96 -21 -2002 l0 -1933 35 -67 c58 -113 131 -176 234 -204
86 -24 125 -23 217 1 57 16 88 31 125 62 27 22 51 49 54 59 4 11 10 19 15 19
13 0 37 60 54 133 14 61 16 266 16 1870 0 1525 3 1817 15 1902 16 112 31 171
45 180 5 3 18 26 29 50 25 57 154 186 218 219 97 50 114 56 212 71 88 13 491
15 3238 15 3017 -1 3142 -1 3246 -19 59 -11 120 -27 135 -37 15 -10 44 -26 65
-36 47 -22 184 -159 206 -207 9 -20 24 -47 33 -61 9 -14 25 -63 34 -110 16
-76 18 -201 24 -1235 5 -1075 7 -1154 24 -1215 19 -66 28 -79 105 -155 32 -31
65 -51 120 -71 91 -33 142 -34 238 -4 91 27 176 101 225 194 l33 61 0 1240 0
1240 -22 65 c-12 36 -27 92 -33 125 -7 33 -20 74 -30 90 -10 17 -23 48 -30 70
-7 22 -18 47 -26 55 -7 8 -22 35 -33 60 -21 44 -40 74 -98 153 -31 42 -213
226 -266 269 -18 14 -50 34 -70 44 -20 10 -37 22 -37 26 0 5 -21 18 -48 29
-26 11 -54 26 -62 33 -8 8 -33 19 -55 26 -22 7 -54 20 -72 30 -17 10 -57 23
-90 30 -32 6 -85 21 -118 33 l-60 22 -3305 1 c-1818 1 -3333 -2 -3367 -7z"/>
<path d="M3540 8230 c-14 -4 -38 -15 -55 -24 -16 -9 -36 -16 -43 -16 -25 0
-122 -103 -158 -169 -34 -61 -36 -73 -37 -152 -1 -78 2 -92 31 -152 19 -37 56
-88 87 -120 46 -46 69 -60 138 -83 l82 -29 915 0 915 0 79 28 c44 15 88 35 98
45 74 69 103 105 130 162 27 56 31 76 30 145 0 71 -4 88 -35 150 -35 70 -131
175 -159 175 -7 0 -31 10 -53 23 l-40 22 -950 2 c-522 1 -961 -2 -975 -7z"/>
<path d="M7010 5490 c-63 -4 -128 -13 -145 -19 -16 -7 -81 -19 -144 -27 -63
-8 -136 -24 -161 -34 -25 -10 -72 -24 -105 -30 -33 -7 -74 -20 -91 -29 -16
-10 -55 -24 -85 -31 -30 -7 -65 -21 -79 -30 -14 -9 -43 -23 -65 -30 -22 -7
-47 -19 -56 -26 -9 -8 -38 -21 -65 -30 -27 -9 -58 -24 -69 -34 -11 -9 -34 -22
-52 -29 -18 -7 -38 -20 -45 -28 -7 -9 -31 -24 -53 -35 -53 -24 -157 -97 -217
-150 -17 -16 -35 -28 -39 -28 -5 0 -16 -8 -26 -18 -10 -11 -61 -56 -113 -102
-78 -68 -164 -159 -277 -291 -45 -52 -129 -164 -155 -206 -10 -15 -31 -48 -48
-73 -16 -25 -41 -67 -56 -95 -14 -27 -32 -57 -39 -65 -6 -8 -20 -35 -29 -60
-10 -25 -23 -52 -31 -60 -7 -8 -18 -33 -25 -55 -7 -22 -21 -53 -30 -70 -10
-16 -24 -52 -31 -80 -6 -27 -20 -63 -29 -80 -10 -16 -23 -57 -30 -90 -7 -33
-20 -80 -30 -105 -10 -25 -24 -83 -30 -130 -6 -47 -21 -124 -32 -173 -16 -71
-21 -125 -22 -285 l-1 -198 35 -68 c39 -78 75 -118 150 -164 91 -57 269 -61
356 -10 48 29 153 133 165 165 20 54 40 177 54 338 20 233 24 263 45 315 11
25 24 72 30 105 7 33 20 74 30 90 9 17 23 53 30 80 7 28 21 59 30 70 10 11 23
38 30 60 7 22 20 49 29 60 10 11 23 34 30 50 7 17 28 53 47 80 19 28 46 66 59
85 13 19 37 52 52 73 39 54 275 292 304 307 13 7 38 24 54 37 98 79 118 93
129 93 7 0 21 9 30 19 10 11 32 25 49 32 18 7 41 20 52 29 11 10 38 23 60 30
22 7 51 21 65 30 14 10 48 25 77 33 28 9 62 22 75 30 12 8 58 22 101 31 42 9
90 22 105 30 58 30 432 59 590 45 270 -22 346 -32 386 -48 22 -10 69 -23 104
-30 35 -7 77 -21 95 -31 18 -10 52 -24 77 -30 25 -7 52 -18 60 -25 8 -7 35
-21 60 -31 25 -9 54 -25 65 -35 12 -10 36 -24 55 -31 19 -6 48 -21 63 -32 25
-19 43 -21 145 -21 l117 1 64 39 c93 57 154 135 175 222 10 38 17 87 18 109 0
50 -36 174 -60 199 -10 11 -24 30 -32 41 -16 23 -105 94 -118 94 -4 0 -32 15
-61 34 -29 19 -65 37 -79 41 -15 4 -36 15 -47 25 -11 10 -40 24 -65 30 -25 7
-56 20 -70 29 -14 10 -47 24 -75 31 -27 7 -63 21 -80 30 -16 10 -59 23 -94 30
-36 6 -86 20 -111 30 -26 10 -96 25 -156 34 -60 8 -123 20 -138 26 -69 26
-399 36 -656 20z"/>
<path d="M7215 4255 c-5 -2 -27 -6 -49 -10 -26 -4 -53 -20 -86 -51 -55 -51
-67 -86 -75 -212 -6 -113 -27 -139 -125 -157 -19 -4 -51 -17 -70 -29 -19 -12
-50 -28 -67 -35 -18 -8 -33 -17 -33 -22 0 -5 -14 -16 -31 -24 -56 -30 -199
-187 -199 -220 0 -6 -12 -32 -26 -58 -46 -87 -50 -330 -7 -412 12 -22 27 -56
34 -75 7 -19 23 -48 36 -63 13 -16 23 -33 23 -37 0 -32 232 -220 271 -220 8 0
39 -12 69 -27 53 -25 63 -26 291 -33 l237 -6 57 -35 c73 -44 85 -58 101 -118
14 -56 5 -161 -18 -189 -67 -84 -133 -102 -365 -102 -231 0 -307 19 -377 90
-26 28 -67 60 -90 72 -81 42 -186 17 -258 -61 -33 -37 -43 -58 -61 -139 -3
-13 3 -52 12 -87 16 -57 26 -72 88 -132 76 -73 135 -113 198 -133 22 -7 54
-20 70 -30 17 -10 55 -21 85 -25 93 -11 130 -24 139 -48 5 -12 12 -60 16 -106
12 -140 23 -160 122 -227 49 -33 59 -36 124 -35 38 0 80 6 93 13 62 36 84 55
115 100 32 46 34 55 41 164 5 75 12 119 20 124 7 4 31 10 55 13 42 6 160 61
225 105 66 44 160 142 185 192 10 19 23 42 31 50 7 9 20 40 28 70 8 30 22 73
30 95 22 59 21 201 -3 267 -10 29 -24 74 -31 100 -7 26 -21 55 -31 64 -11 9
-19 23 -19 30 0 20 -110 144 -161 182 -85 63 -135 91 -191 106 -31 8 -69 21
-84 29 -22 11 -83 16 -249 19 -166 3 -226 8 -246 19 -63 35 -89 56 -101 79 -7
14 -18 32 -25 41 -7 8 -16 36 -19 60 -11 82 67 205 144 226 15 5 110 8 212 8
209 0 221 -3 283 -75 19 -22 56 -55 83 -73 42 -28 57 -32 114 -32 55 0 73 5
114 30 26 17 62 49 78 72 27 37 31 50 30 110 0 105 -51 192 -171 296 -17 15
-36 27 -41 27 -6 0 -27 11 -48 25 -20 13 -59 29 -87 35 -114 24 -122 35 -128
175 -4 100 -21 137 -94 202 -43 38 -142 64 -188 48z"/>
<path d="M9440 3851 c-8 -5 -38 -14 -67 -21 -43 -10 -63 -23 -116 -75 -35 -35
-69 -78 -76 -96 -7 -19 -19 -49 -28 -68 -26 -61 -28 -125 -5 -188 11 -32 26
-85 32 -118 7 -33 21 -87 32 -119 38 -115 40 -639 3 -771 -9 -33 -25 -98 -34
-145 -10 -47 -25 -99 -33 -115 -9 -17 -23 -57 -31 -89 -9 -32 -22 -65 -30 -74
-8 -10 -20 -35 -27 -57 -7 -22 -19 -47 -26 -55 -7 -9 -22 -36 -34 -62 -11 -25
-26 -51 -34 -57 -8 -6 -20 -26 -27 -44 -12 -29 -116 -173 -160 -222 -91 -100
-230 -235 -296 -285 -67 -52 -153 -110 -162 -110 -4 0 -25 -13 -46 -30 -21
-16 -43 -30 -50 -30 -7 0 -28 -11 -47 -24 -19 -13 -58 -31 -86 -40 -28 -10
-56 -23 -62 -31 -6 -7 -34 -19 -63 -25 -29 -7 -68 -21 -88 -31 -20 -10 -74
-24 -120 -33 -46 -8 -104 -22 -129 -31 -117 -42 -595 -40 -765 4 -44 11 -107
27 -140 35 -83 21 -222 70 -270 95 -21 12 -47 21 -56 21 -9 0 -28 9 -42 20
-14 11 -45 28 -70 39 -25 11 -48 24 -51 30 -4 6 -26 19 -49 31 -23 11 -62 35
-87 55 -25 19 -56 43 -70 52 -102 71 -172 135 -353 321 -78 80 -97 93 -166
121 -59 24 -93 31 -144 31 -36 0 -68 -4 -72 -10 -3 -5 -31 -17 -61 -27 -43
-13 -70 -31 -119 -80 -58 -57 -66 -71 -89 -147 -14 -46 -26 -98 -26 -115 0
-50 47 -178 82 -223 43 -55 266 -279 346 -348 35 -30 74 -64 85 -76 12 -12 33
-27 46 -34 25 -13 106 -71 131 -94 8 -7 29 -20 46 -29 17 -9 36 -22 43 -31 7
-8 29 -20 49 -27 20 -7 49 -22 64 -35 16 -12 37 -26 49 -29 12 -4 36 -17 55
-30 19 -13 49 -27 67 -31 18 -3 43 -14 57 -24 14 -9 43 -23 65 -30 22 -7 54
-21 70 -30 17 -10 53 -24 80 -31 28 -6 66 -20 85 -30 20 -9 65 -23 100 -29 36
-7 88 -20 116 -30 28 -10 116 -26 195 -35 79 -9 166 -21 193 -26 61 -11 338
-11 431 1 39 4 135 16 215 25 82 9 165 24 190 34 25 10 76 24 114 30 38 7 85
20 105 30 20 10 60 24 90 31 30 7 69 21 85 31 17 9 51 23 76 29 25 7 54 20 65
30 11 9 38 23 60 30 22 7 49 20 60 30 11 10 32 20 47 24 14 3 39 16 55 29 15
13 43 29 61 36 17 8 32 17 32 21 0 4 17 15 38 26 20 10 51 30 69 44 18 14 50
39 73 55 221 163 407 349 565 566 17 22 39 51 51 64 11 12 28 38 37 57 9 20
23 41 31 47 7 6 20 26 27 44 7 18 20 41 30 52 10 11 25 38 35 60 9 22 22 47
28 55 7 8 21 35 30 60 10 25 24 52 31 60 7 8 20 38 28 67 9 28 22 62 31 75 8
12 20 46 27 73 6 28 20 66 30 86 10 20 23 67 29 105 7 38 20 92 31 119 35 90
63 372 63 630 0 129 -5 259 -11 295 -6 36 -17 112 -23 170 -7 58 -20 125 -30
150 -11 25 -24 69 -30 99 -23 115 -108 250 -192 305 -60 39 -229 69 -268 47z"/>
<path d="M256 3365 c-93 -33 -163 -94 -215 -190 l-41 -74 0 -448 c0 -421 1
-452 20 -513 11 -36 27 -96 36 -135 8 -38 23 -84 33 -101 10 -17 22 -45 26
-62 3 -17 16 -46 29 -64 12 -18 28 -47 35 -65 7 -17 21 -39 32 -49 10 -9 19
-22 19 -27 0 -21 97 -140 179 -220 23 -23 54 -53 67 -66 14 -14 35 -32 48 -40
13 -9 49 -34 81 -56 73 -50 182 -109 231 -125 21 -7 51 -21 68 -30 17 -10 59
-23 93 -29 35 -7 79 -19 99 -27 67 -28 380 -35 1434 -32 l1025 3 70 38 c88 48
126 85 173 167 36 64 37 67 37 170 0 101 -1 107 -34 164 -54 92 -138 167 -212
188 -33 9 -319 13 -1149 18 -1011 5 -1113 7 -1200 24 -52 10 -106 25 -120 34
-14 9 -42 24 -63 34 -57 26 -187 162 -231 243 -60 110 -67 166 -75 600 -6 310
-11 391 -24 438 -16 54 -64 131 -96 151 -7 4 -23 18 -34 29 -29 29 -171 77
-227 76 -25 0 -76 -11 -114 -24z"/>
</g>
</svg>
