<?xml version="1.0" standalone="no"?>
<!DOCTYPE svg PUBLIC "-//W3C//DTD SVG 20010904//EN"
 "http://www.w3.org/TR/2001/REC-SVG-20010904/DTD/svg10.dtd">
<svg version="1.0" xmlns="http://www.w3.org/2000/svg"
 width="1000.000000pt" height="1000.000000pt" viewBox="0 0 1000.000000 1000.000000"
 preserveAspectRatio="xMidYMid meet">
<metadata>
Created by potrace 1.16, written by Peter Selinger 2001-2019
</metadata>
<g transform="translate(0.000000,1000.000000) scale(0.100000,-0.100000)"
fill="#000000" stroke="none">
<path d="M6096 9985 c-11 -8 -30 -15 -42 -15 -43 0 -206 -76 -282 -133 -182
-133 -301 -322 -344 -547 -17 -86 -23 -3265 -7 -3393 7 -54 16 -100 21 -103 4
-3 8 -14 8 -24 0 -26 62 -142 94 -177 14 -15 26 -31 26 -35 0 -12 124 -104
170 -125 158 -73 161 -73 1022 -73 807 0 803 0 897 52 72 40 141 121 168 198
16 45 17 193 1 239 -14 42 -73 130 -99 149 -10 7 -24 18 -31 25 -7 7 -39 25
-71 40 l-58 27 -702 0 c-534 0 -706 3 -715 12 -9 9 -12 361 -12 1524 0 831 3
1526 6 1544 4 18 23 48 42 67 34 34 37 35 91 29 110 -12 175 -23 311 -56 119
-29 286 -77 312 -91 10 -5 25 -9 33 -9 8 0 23 -4 33 -9 9 -5 37 -17 62 -26
108 -41 128 -50 190 -78 61 -28 157 -74 180 -86 8 -4 26 -14 40 -21 14 -8 52
-29 85 -48 33 -19 69 -40 80 -46 11 -6 34 -20 50 -31 17 -11 37 -24 46 -30 61
-38 104 -69 107 -76 2 -5 9 -9 15 -9 7 0 23 -10 37 -23 14 -13 41 -34 61 -48
80 -54 215 -174 359 -319 156 -157 252 -269 355 -415 27 -38 53 -71 57 -73 5
-2 8 -8 8 -14 0 -6 11 -26 25 -44 14 -18 25 -37 25 -43 0 -6 4 -11 8 -11 5 0
15 -12 23 -27 7 -16 27 -50 44 -78 17 -27 39 -66 48 -85 10 -19 26 -48 37 -65
10 -16 19 -38 19 -47 1 -10 6 -18 11 -18 6 0 10 -6 10 -14 0 -8 9 -30 19 -48
11 -18 34 -69 51 -113 17 -44 36 -84 41 -89 5 -6 9 -18 9 -28 0 -10 4 -26 9
-36 14 -27 29 -65 34 -87 3 -11 15 -45 26 -75 12 -30 21 -65 21 -77 0 -12 4
-24 9 -27 5 -3 11 -20 14 -38 3 -18 12 -60 22 -93 28 -100 54 -245 61 -345 5
-63 4 -66 -29 -105 l-34 -40 -224 -6 c-124 -3 -233 -11 -244 -16 -11 -6 -37
-19 -58 -29 -22 -11 -51 -31 -67 -45 -35 -34 -90 -113 -90 -131 0 -8 -6 -20
-12 -26 -16 -16 -17 -200 -2 -233 7 -13 19 -40 27 -59 19 -41 97 -120 147
-147 70 -38 133 -45 365 -40 204 4 243 8 349 35 154 40 362 196 463 347 44 66
93 166 93 189 0 8 5 18 10 21 6 3 10 21 10 40 0 18 7 40 15 49 12 12 15 46 15
174 0 102 -4 162 -10 164 -6 2 -15 35 -20 73 -13 98 -26 170 -45 240 -9 33
-18 71 -21 85 -6 28 -22 92 -34 130 -4 14 -20 66 -35 115 -15 50 -31 98 -36
107 -5 10 -9 26 -9 36 0 10 -4 22 -8 28 -5 5 -17 32 -26 59 -20 56 -25 70 -56
140 -12 28 -29 66 -37 85 -53 122 -208 419 -231 442 -7 7 -12 16 -12 20 0 16
-237 370 -260 388 -3 3 -19 23 -36 45 -31 43 -36 48 -139 170 -82 96 -326 341
-410 410 -33 28 -69 58 -80 68 -11 11 -36 31 -55 45 -19 15 -37 29 -40 32 -11
12 -129 99 -148 109 -11 6 -26 17 -34 23 -28 27 -87 68 -97 68 -6 0 -11 5 -11
10 0 6 -4 10 -10 10 -9 0 -72 39 -97 60 -7 5 -15 10 -18 10 -3 0 -24 12 -48
27 -84 53 -335 183 -354 183 -7 0 -13 5 -13 10 0 6 -7 10 -15 10 -8 0 -23 4
-33 9 -19 10 -127 59 -157 72 -11 4 -40 15 -65 23 -25 8 -58 20 -75 26 -52 21
-68 27 -160 55 -49 15 -98 31 -107 36 -10 5 -31 9 -47 9 -17 0 -32 4 -35 9 -3
5 -23 11 -43 14 -21 3 -65 13 -98 22 -73 20 -148 33 -240 44 -38 5 -71 14 -73
20 -6 18 -302 14 -326 -4z"/>
<path d="M3865 8560 c-16 -4 -48 -8 -70 -9 -64 -2 -368 -56 -490 -87 -33 -9
-78 -20 -100 -26 -22 -5 -58 -14 -80 -20 -64 -17 -304 -97 -375 -125 -36 -14
-74 -29 -85 -33 -28 -10 -113 -49 -230 -104 -136 -65 -106 -49 -272 -143 -27
-14 -61 -34 -78 -43 -77 -43 -369 -240 -385 -260 -3 -3 -23 -19 -45 -35 -22
-17 -42 -32 -45 -36 -3 -3 -30 -25 -60 -48 -114 -89 -380 -347 -436 -422 -40
-55 -74 -151 -74 -214 0 -33 25 -127 45 -169 26 -54 106 -130 171 -161 51 -24
72 -28 149 -28 136 -1 174 21 355 199 80 79 156 152 170 161 14 9 43 34 65 54
60 56 364 279 380 279 3 0 21 11 39 25 18 14 38 25 44 25 7 0 12 3 12 8 0 4
10 12 23 18 12 6 65 34 118 61 130 69 124 66 210 107 42 20 81 36 88 36 6 0
19 4 29 9 9 5 35 17 57 26 22 9 48 20 57 25 10 6 25 10 33 10 8 0 23 4 33 9 9
5 58 21 107 36 50 15 98 31 107 36 10 5 31 9 47 9 17 0 33 5 36 10 3 6 20 10
36 10 17 0 39 5 49 10 10 6 47 15 82 20 35 6 90 16 123 22 33 6 89 11 125 12
l65 1 6 -1700 c3 -935 9 -1717 14 -1738 4 -20 11 -40 16 -43 5 -3 9 -15 10
-27 0 -12 9 -35 20 -52 10 -16 23 -39 28 -50 41 -88 208 -225 301 -248 156
-38 87 -36 1812 -37 911 0 1663 -3 1672 -6 25 -10 16 -114 -24 -292 -6 -23
-10 -58 -10 -77 0 -18 -5 -37 -10 -40 -6 -3 -10 -18 -10 -32 0 -15 -4 -40 -10
-57 -9 -29 -26 -89 -51 -181 -7 -22 -20 -65 -31 -95 -11 -30 -22 -64 -25 -75
-5 -22 -20 -60 -34 -87 -5 -10 -9 -22 -9 -28 0 -25 -164 -359 -229 -469 -28
-46 -51 -88 -51 -93 0 -4 -4 -8 -10 -8 -5 0 -10 -5 -10 -11 0 -10 -135 -205
-209 -301 -105 -137 -327 -371 -441 -464 -19 -16 -42 -36 -50 -44 -8 -9 -33
-29 -55 -45 -22 -17 -56 -45 -75 -62 -19 -18 -39 -33 -43 -33 -4 0 -19 -10
-33 -23 -25 -24 -267 -179 -344 -222 -118 -64 -341 -171 -423 -201 -66 -25
-79 -30 -120 -48 -21 -9 -46 -16 -57 -16 -10 0 -22 -4 -25 -10 -3 -5 -17 -10
-30 -10 -13 0 -26 -4 -29 -9 -3 -5 -20 -11 -38 -14 -18 -3 -58 -13 -88 -22
-30 -10 -74 -21 -97 -26 -104 -22 -133 -28 -213 -44 -127 -25 -236 -36 -425
-43 -249 -10 -702 9 -755 32 -8 3 -42 10 -75 16 -33 5 -81 14 -107 20 -27 5
-67 14 -90 19 -75 17 -145 37 -213 61 -11 4 -38 13 -60 19 -37 11 -80 27 -145
54 -14 5 -34 13 -45 17 -116 45 -349 162 -475 238 -19 12 -48 29 -65 38 -32
18 -257 174 -265 184 -3 3 -23 19 -45 35 -22 17 -42 32 -45 35 -3 3 -39 34
-80 69 -113 97 -333 320 -425 432 -37 44 -130 164 -145 186 -8 11 -36 51 -63
88 -26 36 -47 68 -47 70 0 2 -20 35 -44 72 -60 93 -95 157 -165 298 -58 119
-85 178 -120 268 -5 12 -20 51 -35 87 -14 36 -26 71 -26 78 0 7 -4 20 -9 30
-20 39 -80 258 -106 387 -43 215 -48 253 -67 505 -19 246 -11 477 22 700 28
188 23 266 -23 350 -27 50 -106 128 -147 147 -19 8 -46 20 -59 26 -31 15 -208
14 -223 -1 -7 -7 -18 -12 -26 -12 -18 0 -112 -66 -130 -91 -7 -10 -18 -24 -25
-31 -51 -52 -85 -207 -106 -483 -5 -66 -14 -133 -20 -148 -14 -37 -15 -372 -1
-398 6 -11 15 -86 21 -167 15 -242 22 -293 70 -527 5 -27 14 -70 18 -95 5 -25
16 -72 26 -105 9 -33 21 -76 27 -95 5 -19 13 -48 18 -65 5 -16 12 -41 15 -55
4 -14 10 -34 15 -45 5 -11 16 -45 26 -75 10 -30 22 -59 26 -64 4 -6 8 -20 8
-32 0 -13 5 -26 10 -29 6 -3 10 -13 10 -20 0 -8 12 -40 26 -72 14 -32 30 -67
34 -78 31 -82 169 -357 226 -450 13 -22 29 -49 34 -60 13 -26 25 -46 78 -123
23 -35 42 -66 43 -70 0 -4 16 -27 34 -52 19 -25 60 -81 92 -125 31 -44 66 -89
76 -100 11 -11 31 -36 46 -56 78 -106 362 -401 506 -527 127 -110 296 -242
399 -310 56 -36 103 -69 106 -72 3 -3 14 -10 25 -17 11 -6 56 -33 100 -60 44
-26 94 -56 110 -65 35 -20 331 -166 360 -178 11 -4 44 -19 73 -34 30 -14 60
-26 68 -26 8 0 22 -4 32 -9 9 -5 28 -13 42 -18 14 -6 42 -18 63 -27 21 -9 46
-16 57 -16 10 0 21 -4 24 -9 3 -5 18 -11 33 -14 16 -3 44 -10 63 -16 19 -5 60
-18 90 -27 54 -16 96 -26 175 -44 22 -5 72 -16 110 -25 86 -19 172 -33 289
-45 49 -5 94 -14 99 -19 15 -15 899 -15 914 0 6 6 51 15 99 20 126 13 241 32
402 69 23 6 61 14 85 19 56 12 188 51 209 62 10 5 28 9 41 9 13 0 27 4 32 8 6
5 37 17 70 27 33 11 64 23 70 27 5 4 17 8 27 8 10 0 26 4 36 9 9 5 31 14 47
21 102 42 151 64 330 151 83 40 174 88 203 106 29 18 54 33 57 33 14 0 292
183 345 227 8 7 29 23 46 35 56 41 149 111 154 118 3 3 32 28 65 55 33 27 134
124 225 215 199 198 244 249 376 417 75 96 259 369 306 453 14 25 35 61 46 80
24 42 130 254 162 325 27 62 50 114 60 140 23 57 42 102 50 117 6 10 10 25 10
33 0 8 4 23 9 33 17 33 67 189 77 242 3 14 9 34 14 45 5 11 11 31 14 45 3 14
12 54 21 90 32 128 45 193 65 334 6 44 13 83 16 88 11 17 28 239 28 358 0 69
-6 145 -12 169 -19 67 -72 170 -114 225 -66 84 -197 174 -280 191 -18 4 -39
12 -47 19 -10 8 -467 12 -1722 14 -1393 2 -1709 5 -1718 16 -8 9 -12 509 -13
1722 -3 1437 -5 1715 -17 1744 -8 19 -17 44 -22 55 -23 60 -35 85 -40 85 -4 0
-12 13 -19 30 -19 46 -147 161 -220 197 -119 59 -174 73 -295 72 -60 -1 -123
-5 -140 -9z"/>
</g>
</svg>
