<?xml version="1.0" standalone="no"?>
<!DOCTYPE svg PUBLIC "-//W3C//DTD SVG 20010904//EN"
 "http://www.w3.org/TR/2001/REC-SVG-20010904/DTD/svg10.dtd">
<svg version="1.0" xmlns="http://www.w3.org/2000/svg"
 width="1000.000000pt" height="1000.000000pt" viewBox="0 0 1000.000000 1000.000000"
 preserveAspectRatio="xMidYMid meet">
<metadata>
Created by potrace 1.16, written by Peter Selinger 2001-2019
</metadata>
<g transform="translate(0.000000,1000.000000) scale(0.100000,-0.100000)"
fill="#000000" stroke="none">
<path d="M1373 9930 c-70 -5 -131 -15 -165 -28 -29 -11 -80 -25 -113 -32 -33
-6 -78 -22 -100 -35 -22 -12 -58 -28 -80 -35 -22 -7 -49 -20 -60 -30 -11 -10
-36 -25 -55 -34 -109 -51 -313 -238 -432 -398 -37 -49 -98 -146 -98 -155 0 -6
-11 -26 -24 -45 -13 -20 -29 -53 -36 -74 -7 -22 -21 -54 -31 -72 -11 -19 -28
-70 -38 -115 -11 -45 -27 -102 -36 -125 -10 -30 -19 -106 -25 -240 -13 -270
-13 -6814 0 -7074 8 -152 15 -210 30 -250 10 -29 26 -84 35 -122 8 -38 24 -83
34 -100 10 -17 22 -45 26 -63 3 -18 17 -48 31 -68 13 -20 24 -39 24 -44 0 -4
18 -36 40 -70 22 -34 40 -64 40 -68 0 -5 23 -34 93 -116 74 -87 223 -226 278
-260 20 -12 50 -31 68 -42 19 -11 50 -31 70 -44 20 -13 56 -31 81 -39 25 -8
57 -23 71 -33 15 -11 59 -26 98 -34 39 -8 88 -22 108 -31 22 -9 93 -20 168
-25 79 -6 1002 -9 2366 -7 l2235 3 42 27 c23 16 46 28 52 28 30 0 144 136 168
200 18 46 24 173 12 244 -20 128 -134 267 -240 296 -103 28 -243 30 -2346 30
-1474 0 -2190 3 -2230 11 -151 26 -178 34 -210 56 -19 12 -38 23 -43 23 -4 0
-37 24 -73 52 -67 54 -123 120 -154 180 -9 18 -23 41 -31 50 -9 10 -28 73 -44
140 l-29 123 0 3495 0 3495 25 100 c13 55 25 107 25 116 0 9 6 21 13 28 8 6
27 37 43 68 34 68 165 203 216 223 18 7 42 21 53 31 11 10 50 26 85 35 57 16
151 18 800 24 859 8 839 6 959 97 47 36 73 72 112 152 45 93 34 313 -19 386
-42 57 -115 135 -127 135 -6 0 -27 12 -48 26 -31 20 -57 28 -130 35 -110 10
-1324 9 -1484 -1z"/>
<path d="M4574 9930 c-57 -5 -91 -13 -110 -27 -16 -11 -39 -23 -50 -27 -21 -6
-83 -70 -131 -134 -21 -28 -63 -177 -63 -224 0 -11 9 -60 21 -108 15 -67 29
-100 57 -137 20 -26 43 -52 50 -56 7 -5 28 -22 46 -38 22 -18 62 -37 112 -51
l79 -22 2020 -6 c1885 -5 2024 -7 2085 -23 35 -10 74 -26 85 -36 11 -9 33 -23
48 -29 46 -20 126 -92 178 -161 27 -35 49 -69 49 -74 0 -6 11 -27 24 -46 15
-23 34 -80 50 -153 l26 -117 0 -615 c0 -589 -1 -615 -19 -637 l-19 -24 -3574
-5 c-3753 -6 -3637 -5 -3684 -49 -11 -9 -33 -25 -51 -36 -17 -10 -36 -29 -42
-42 -6 -13 -17 -26 -25 -29 -8 -3 -27 -37 -41 -75 -15 -38 -31 -71 -36 -75 -5
-3 -9 -49 -9 -102 0 -75 4 -104 18 -127 10 -16 24 -48 31 -70 24 -76 152 -186
239 -206 20 -5 1632 -9 3582 -9 2289 0 3557 -3 3579 -10 19 -5 38 -15 43 -22
4 -7 8 -1100 8 -2428 l0 -2415 -29 -123 c-16 -67 -35 -130 -44 -140 -8 -9 -22
-32 -31 -50 -31 -60 -87 -126 -154 -179 -36 -29 -70 -53 -75 -53 -5 0 -20 -9
-34 -20 -60 -47 -164 -60 -543 -69 -279 -7 -334 -11 -391 -28 -122 -36 -212
-137 -248 -280 -29 -112 -28 -117 15 -268 19 -69 104 -162 192 -211 l67 -39
305 -3 c332 -4 561 8 606 31 16 8 64 22 107 31 44 9 91 24 105 35 15 10 51 26
79 35 29 10 55 22 59 27 3 5 26 21 52 35 119 63 267 189 379 321 71 84 93 111
93 117 0 4 18 35 40 68 22 34 40 66 40 71 0 5 8 21 19 35 10 15 26 50 35 77
10 28 24 60 32 72 8 13 21 53 30 90 8 38 24 94 35 126 15 45 22 105 29 255 13
270 13 6804 0 7064 -8 154 -15 210 -30 250 -11 29 -26 85 -34 124 -8 39 -24
87 -35 105 -10 19 -24 51 -31 73 -7 21 -23 54 -36 74 -13 19 -24 40 -24 47 0
7 -13 28 -29 48 -15 20 -34 50 -41 67 -7 16 -16 30 -21 30 -5 0 -16 14 -24 31
-22 42 -263 283 -306 304 -18 9 -44 27 -57 39 -24 21 -73 49 -152 85 -25 12
-66 32 -91 45 -25 14 -75 30 -110 37 -35 7 -84 21 -108 31 -31 13 -87 21 -190
28 -169 11 -3903 11 -4027 0z"/>
<path d="M6820 8537 c-33 -13 -103 -56 -125 -76 -43 -42 -68 -76 -99 -141 -34
-71 -36 -81 -36 -175 0 -96 2 -103 39 -180 37 -75 65 -108 154 -181 53 -44
276 -58 339 -23 138 78 199 158 226 294 14 74 14 95 3 162 -7 43 -19 92 -27
108 -26 54 -76 116 -118 145 -22 16 -54 39 -70 51 -25 20 -43 23 -140 26 -76
2 -122 -1 -146 -10z"/>
<path d="M8116 8540 c-16 -5 -38 -17 -50 -27 -11 -11 -32 -25 -46 -32 -26 -13
-73 -68 -116 -134 -37 -57 -47 -115 -42 -236 4 -101 7 -112 36 -157 49 -77 83
-117 130 -152 58 -44 81 -52 173 -59 106 -8 191 10 242 50 53 42 117 109 117
123 0 6 9 19 19 28 26 24 41 98 41 202 0 102 -15 169 -47 207 -12 16 -23 32
-23 36 0 13 -65 79 -97 98 -16 10 -43 27 -59 38 -23 17 -47 20 -139 22 -60 1
-123 -2 -139 -7z"/>
<path d="M4903 5780 c-65 -18 -123 -60 -158 -114 -11 -17 -25 -37 -31 -43 -19
-20 -34 -107 -34 -201 0 -48 -4 -93 -8 -100 -15 -22 -85 -54 -161 -74 -41 -10
-82 -25 -90 -32 -9 -8 -38 -24 -64 -35 -27 -12 -55 -28 -64 -36 -8 -9 -29 -23
-46 -31 -17 -9 -66 -53 -109 -98 -104 -108 -115 -121 -134 -159 -9 -17 -24
-41 -34 -52 -10 -11 -23 -38 -30 -60 -7 -22 -21 -51 -31 -65 -10 -14 -25 -61
-35 -105 -9 -44 -23 -107 -30 -140 -19 -82 -18 -257 1 -320 9 -27 23 -84 31
-125 8 -41 23 -86 33 -100 9 -14 25 -45 35 -70 10 -25 24 -52 31 -60 7 -8 21
-31 30 -50 10 -19 26 -44 36 -55 10 -11 36 -41 57 -67 63 -75 182 -172 244
-200 22 -10 46 -24 54 -33 8 -8 40 -22 71 -31 30 -9 76 -26 101 -37 45 -20 67
-22 438 -27 l391 -5 39 -26 c21 -14 51 -33 66 -42 15 -10 46 -45 69 -79 97
-146 66 -355 -68 -464 -72 -58 -79 -59 -533 -59 -309 0 -428 3 -464 13 -40 11
-62 26 -117 84 -38 39 -69 75 -69 79 0 15 -73 94 -99 108 -14 7 -36 23 -49 35
-21 19 -36 21 -126 21 -86 0 -106 -3 -130 -20 -16 -11 -38 -25 -49 -32 -11 -6
-38 -31 -60 -55 -43 -46 -87 -161 -87 -228 0 -47 36 -169 58 -200 11 -14 27
-41 37 -60 54 -105 246 -282 360 -331 17 -7 40 -21 53 -30 12 -9 46 -22 75
-29 28 -6 79 -20 112 -31 33 -10 99 -23 147 -28 49 -5 95 -14 103 -21 11 -9
15 -32 15 -81 0 -101 16 -157 63 -223 29 -41 62 -71 107 -99 62 -39 68 -40
150 -40 83 0 86 0 153 43 117 74 167 172 167 325 0 73 13 89 80 100 25 4 63
14 85 22 22 8 72 21 110 30 39 8 79 23 90 32 11 10 36 24 55 31 19 7 46 24 61
37 14 12 30 23 35 23 11 0 88 64 144 121 48 48 124 149 149 198 12 22 25 42
31 46 5 3 16 28 24 55 8 26 22 60 31 73 28 43 59 230 59 357 1 192 -32 338
-111 485 -9 17 -25 48 -36 69 -26 53 -131 177 -212 251 -67 60 -123 98 -205
135 -25 11 -63 30 -85 41 -69 34 -131 40 -500 48 -354 8 -361 8 -429 34 -78
30 -94 42 -146 112 -41 56 -60 118 -60 198 0 100 16 153 66 218 38 50 59 66
120 95 l73 34 239 0 c133 0 242 -4 248 -9 5 -5 33 -19 61 -30 55 -22 105 -69
153 -144 50 -78 91 -117 165 -152 97 -47 151 -47 243 -1 63 32 152 111 152
136 0 6 10 25 23 41 19 27 22 43 22 132 0 78 -4 109 -17 132 -9 17 -27 50 -38
75 -12 24 -25 47 -29 50 -4 3 -22 26 -39 52 -36 53 -162 172 -207 195 -16 9
-43 26 -58 39 -16 13 -34 24 -41 24 -7 0 -43 16 -82 35 -38 19 -76 35 -85 35
-8 0 -38 7 -66 15 -63 19 -73 41 -73 169 -1 115 -11 160 -52 222 -50 76 -99
114 -176 135 -81 22 -108 22 -189 -1z"/>
</g>
</svg>
