<?xml version="1.0" standalone="no"?>
<!DOCTYPE svg PUBLIC "-//W3C//DTD SVG 20010904//EN"
 "http://www.w3.org/TR/2001/REC-SVG-20010904/DTD/svg10.dtd">
<svg version="1.0" xmlns="http://www.w3.org/2000/svg"
 width="1000.000000pt" height="1000.000000pt" viewBox="0 0 1000.000000 1000.000000"
 preserveAspectRatio="xMidYMid meet">
<metadata>
Created by potrace 1.16, written by Peter Selinger 2001-2019
</metadata>
<g transform="translate(0.000000,1000.000000) scale(0.100000,-0.100000)"
fill="#000000" stroke="none">
<path d="M4525 9779 c-198 -10 -510 -47 -620 -73 -11 -2 -58 -12 -105 -21
-191 -37 -251 -69 -319 -170 -29 -43 -61 -136 -61 -178 0 -29 22 -101 47 -157
30 -66 113 -130 220 -170 34 -13 158 -9 248 8 28 5 91 17 140 27 245 46 413
60 740 60 166 0 337 -6 400 -13 134 -15 243 -30 271 -36 26 -7 44 -46 44 -99
0 -23 5 -62 11 -87 6 -25 15 -81 20 -125 34 -279 57 -403 80 -429 5 -6 9 -18
9 -28 0 -10 4 -26 9 -36 5 -9 23 -46 40 -82 71 -146 134 -234 256 -355 140
-141 281 -232 485 -315 98 -39 97 -39 215 -71 205 -55 496 -59 720 -9 28 6 65
14 83 17 18 3 35 9 38 14 3 5 14 9 25 9 10 0 27 4 37 9 27 15 89 41 96 41 3 0
28 9 54 21 26 12 56 25 67 29 11 4 41 17 67 29 26 12 54 21 61 21 7 0 17 4 22
8 6 5 35 19 65 31 l55 22 20 -24 c11 -13 29 -35 39 -48 11 -13 40 -49 66 -79
101 -120 300 -404 300 -428 0 -7 5 -12 10 -12 6 0 10 -4 10 -10 0 -5 15 -33
33 -62 30 -48 165 -317 190 -378 5 -14 14 -35 20 -48 10 -20 7 -26 -19 -47
-16 -13 -40 -30 -54 -37 -14 -7 -27 -16 -30 -20 -3 -3 -23 -17 -45 -30 -222
-129 -483 -351 -549 -467 -5 -9 -13 -18 -17 -21 -9 -7 -45 -66 -66 -112 -10
-21 -21 -38 -25 -38 -5 0 -8 -6 -8 -12 0 -11 -19 -56 -61 -140 -5 -10 -9 -25
-9 -33 0 -8 -4 -23 -9 -33 -53 -105 -75 -458 -38 -627 10 -44 20 -95 24 -113
3 -18 9 -35 14 -38 5 -3 9 -16 9 -29 0 -13 5 -27 10 -30 6 -3 10 -13 10 -21 0
-31 111 -243 133 -252 4 -2 7 -10 7 -18 0 -8 4 -14 8 -14 4 0 16 -14 26 -32
46 -77 228 -240 366 -328 30 -19 57 -38 58 -42 2 -5 8 -8 14 -8 11 0 245 -157
253 -170 5 -9 2 -17 -23 -67 -7 -13 -12 -27 -12 -32 0 -6 -16 -45 -36 -88 -41
-89 -39 -85 -95 -190 -24 -43 -47 -88 -53 -100 -6 -13 -14 -23 -18 -23 -5 0
-8 -4 -8 -10 0 -13 -161 -264 -172 -268 -4 -2 -8 -8 -8 -14 0 -6 -12 -25 -27
-43 -33 -38 -48 -56 -88 -110 -36 -48 -57 -74 -111 -133 -34 -38 -43 -43 -60
-34 -27 15 -134 62 -139 62 -3 0 -27 9 -53 21 -55 25 -89 39 -117 49 -11 4
-33 13 -50 20 -59 25 -71 29 -145 53 -90 30 -137 42 -210 56 -85 15 -284 32
-316 26 -16 -3 -74 -10 -129 -15 -144 -13 -232 -31 -342 -71 -167 -59 -268
-115 -324 -178 -27 -30 -49 -62 -49 -71 0 -9 -3 -20 -7 -24 -4 -4 -13 -32 -19
-62 -12 -63 0 -145 30 -206 22 -45 130 -148 155 -148 9 0 21 -4 26 -8 18 -16
92 -32 147 -32 66 0 108 12 208 58 119 56 177 67 340 67 155 0 212 -10 318
-55 12 -6 32 -14 45 -19 12 -5 43 -18 69 -30 26 -12 54 -21 61 -21 7 0 17 -4
22 -8 6 -5 35 -19 65 -31 30 -13 71 -30 90 -38 46 -20 80 -34 105 -43 11 -5
36 -15 55 -23 168 -73 193 -80 285 -80 167 0 222 40 520 373 47 53 75 89 228
290 43 57 87 121 99 142 12 21 25 38 30 38 4 0 8 5 8 12 0 6 11 26 25 44 14
18 25 37 25 43 0 6 3 11 8 11 4 0 13 15 21 33 8 17 20 39 27 47 21 25 178 329
204 395 4 11 20 47 35 80 33 71 38 84 61 150 9 28 21 54 26 60 4 5 8 19 8 31
0 13 5 26 10 29 5 3 10 15 10 26 0 10 4 27 9 37 40 80 45 202 10 278 -38 82
-76 121 -197 202 -65 42 -118 80 -120 84 -2 5 -8 8 -12 8 -5 0 -55 30 -110 67
-56 38 -123 81 -148 97 -26 15 -48 32 -50 37 -2 5 -8 9 -13 9 -14 0 -119 74
-159 112 -55 53 -107 122 -125 168 -4 8 -11 23 -16 32 -5 10 -9 27 -9 37 0 11
-4 22 -9 25 -4 3 -11 22 -14 43 -3 21 -11 66 -17 101 -9 52 -8 81 6 155 9 51
20 96 25 102 5 5 9 17 9 27 0 9 12 39 27 65 14 26 31 57 37 68 6 10 16 25 21
31 88 103 117 129 236 209 74 50 142 95 151 100 33 20 295 195 354 236 34 24
76 65 96 93 72 106 80 202 28 341 -4 11 -13 38 -19 60 -11 37 -27 80 -54 145
-5 14 -13 34 -17 45 -5 11 -18 43 -30 70 -12 28 -29 66 -37 85 -33 77 -173
351 -184 360 -3 3 -18 28 -34 55 -47 85 -242 376 -265 395 -3 3 -33 42 -68 87
-34 45 -75 97 -91 115 -16 18 -62 71 -103 118 -109 125 -239 254 -273 269 -16
8 -41 19 -54 25 -33 15 -221 14 -254 -1 -15 -7 -38 -17 -52 -23 -14 -5 -36
-14 -50 -20 -14 -5 -35 -14 -47 -19 -13 -5 -39 -16 -58 -24 -19 -8 -64 -27
-100 -42 -36 -15 -81 -34 -100 -42 -19 -8 -44 -18 -55 -23 -11 -4 -32 -12 -47
-19 -16 -6 -38 -15 -50 -20 -13 -5 -49 -21 -81 -35 -32 -14 -62 -26 -67 -26
-6 0 -18 -4 -28 -9 -63 -32 -225 -47 -342 -31 -118 15 -150 22 -156 31 -3 5
-11 9 -19 9 -20 0 -133 54 -181 87 -55 37 -133 110 -165 153 -34 47 -90 166
-101 215 -5 22 -13 76 -19 120 -22 188 -28 236 -44 335 -19 126 -34 232 -44
320 -14 114 -42 172 -114 239 -58 53 -114 76 -257 105 -439 88 -858 118 -1315
95z"/>
<path d="M1434 8460 c-89 -19 -136 -50 -259 -175 -140 -142 -203 -215 -351
-403 -57 -72 -248 -354 -280 -412 -10 -19 -21 -37 -24 -40 -6 -6 -40 -69 -76
-140 -15 -30 -38 -72 -51 -92 -13 -21 -23 -44 -23 -53 0 -8 -4 -15 -10 -15 -5
0 -10 -6 -10 -14 0 -8 -12 -38 -26 -68 -25 -50 -37 -77 -54 -123 -17 -44 -41
-101 -50 -117 -6 -10 -10 -26 -10 -36 0 -10 -3 -22 -7 -25 -7 -7 -44 -110 -65
-177 -18 -58 -21 -141 -7 -184 15 -48 67 -133 97 -160 12 -10 133 -92 269
-182 136 -90 254 -168 261 -174 7 -7 23 -17 35 -23 134 -72 252 -196 301 -317
10 -25 22 -54 27 -65 10 -27 19 -83 26 -179 12 -174 -67 -371 -202 -502 -39
-37 -228 -174 -240 -174 -3 0 -11 -5 -18 -10 -29 -25 -267 -180 -276 -180 -5
0 -11 -4 -13 -8 -1 -5 -37 -30 -78 -56 -171 -110 -230 -242 -182 -406 14 -49
33 -102 43 -122 5 -10 9 -25 9 -33 0 -8 4 -23 9 -33 6 -9 28 -62 50 -117 38
-95 111 -261 131 -297 5 -9 27 -49 48 -90 22 -40 50 -91 62 -113 13 -22 28
-49 34 -60 6 -11 21 -34 33 -52 13 -17 23 -34 23 -38 0 -4 16 -30 35 -56 19
-27 35 -53 35 -58 0 -5 3 -11 8 -13 11 -5 82 -107 82 -118 0 -6 3 -10 8 -10 4
0 18 -16 31 -35 13 -19 31 -43 40 -54 9 -11 34 -43 56 -72 22 -28 58 -73 80
-98 22 -26 65 -76 95 -112 83 -97 252 -263 280 -275 14 -6 38 -18 54 -25 37
-18 223 -19 260 -1 27 13 67 29 101 42 11 5 36 15 55 23 19 9 58 25 86 36 28
11 73 29 100 41 27 12 59 26 72 31 12 5 33 14 47 19 14 6 35 14 48 19 12 5 42
18 67 28 80 35 174 71 220 84 61 19 300 18 360 0 108 -33 132 -42 177 -63 157
-72 276 -198 343 -363 16 -39 40 -195 61 -395 52 -501 50 -489 92 -553 9 -14
17 -29 17 -33 0 -14 81 -81 122 -102 50 -24 73 -31 146 -43 28 -5 76 -13 105
-18 223 -39 369 -61 477 -73 144 -15 732 -21 860 -9 118 12 377 46 465 62 28
5 77 14 110 20 33 5 80 13 105 16 25 3 49 9 55 14 5 5 17 9 26 9 30 0 103 44
149 90 64 65 100 148 100 233 0 110 -91 245 -196 292 -21 9 -48 21 -60 27 -24
11 -205 4 -286 -11 -153 -29 -256 -44 -408 -60 -403 -42 -496 -42 -880 0 -172
19 -225 27 -241 33 -19 8 -18 6 -58 391 -5 50 -17 122 -26 160 -9 39 -19 85
-22 103 -3 18 -9 35 -14 38 -5 3 -9 12 -9 20 0 8 -12 41 -26 72 -14 31 -31 68
-37 82 -32 70 -145 225 -224 306 -79 82 -233 207 -273 222 -8 3 -17 8 -20 12
-19 24 -276 131 -390 162 -179 49 -463 67 -635 40 -44 -7 -98 -15 -120 -18
-22 -4 -44 -10 -49 -15 -6 -5 -22 -9 -37 -9 -15 0 -31 -4 -34 -10 -3 -5 -14
-10 -24 -10 -17 0 -95 -30 -197 -75 -21 -9 -48 -20 -59 -25 -26 -10 -61 -24
-105 -43 -19 -8 -64 -27 -100 -42 l-65 -26 -33 38 c-116 133 -372 476 -372
498 0 2 -16 29 -35 59 -60 94 -170 304 -205 391 -4 11 -17 41 -29 67 -12 26
-21 52 -21 58 0 5 100 76 223 157 189 125 238 162 327 252 128 129 199 225
271 371 79 160 108 266 130 476 16 152 -13 386 -65 524 -10 25 -20 54 -23 65
-4 11 -15 35 -25 53 -10 18 -18 38 -18 44 0 6 -33 62 -74 123 -74 111 -195
245 -271 301 -22 16 -49 37 -59 47 -11 9 -24 17 -30 17 -5 0 -19 8 -30 18 -12
10 -93 65 -181 122 -88 57 -163 109 -167 115 -8 11 -4 32 19 85 8 19 19 44 23
55 34 82 184 371 206 396 8 8 14 18 14 22 0 18 222 339 265 383 5 6 24 28 40
49 17 22 51 62 76 88 38 42 48 48 65 39 10 -6 42 -20 69 -32 108 -47 133 -58
188 -79 12 -4 36 -14 52 -21 17 -7 40 -17 53 -21 12 -5 34 -14 50 -20 221 -92
459 -126 709 -103 76 7 152 16 168 19 137 27 252 67 414 142 48 23 141 99 141
116 0 4 12 26 27 50 25 38 27 51 27 137 0 86 -3 100 -30 149 -62 114 -195 191
-329 191 -65 0 -101 -10 -190 -50 -140 -64 -210 -80 -362 -80 -125 0 -199 14
-308 59 -55 23 -77 32 -97 40 -13 5 -39 16 -58 24 -19 9 -58 25 -86 36 -28 11
-73 29 -100 41 -62 28 -114 49 -169 70 -11 5 -36 15 -55 23 -132 58 -230 75
-316 57z"/>
<path d="M4675 7048 c-115 -6 -187 -17 -330 -48 -22 -5 -53 -12 -70 -15 -16
-4 -39 -10 -50 -15 -11 -4 -40 -14 -65 -21 -25 -7 -49 -16 -54 -21 -6 -4 -18
-8 -28 -8 -10 0 -26 -4 -36 -10 -9 -5 -64 -32 -122 -60 -131 -63 -175 -88
-275 -158 -97 -68 -113 -82 -234 -197 -81 -77 -241 -263 -241 -279 0 -3 -8
-15 -17 -26 -27 -31 -124 -213 -153 -285 -4 -11 -14 -36 -22 -55 -34 -80 -55
-157 -93 -333 -24 -110 -24 -454 0 -564 38 -176 59 -253 93 -333 8 -19 17 -44
22 -55 21 -56 115 -232 146 -272 13 -17 24 -34 24 -38 0 -17 159 -201 241
-280 121 -115 137 -129 234 -197 115 -81 137 -92 369 -204 28 -13 57 -24 66
-24 9 0 20 -4 26 -8 5 -5 29 -14 54 -21 25 -7 54 -17 65 -21 11 -5 34 -11 50
-15 17 -3 48 -10 70 -15 180 -40 275 -50 475 -50 202 0 270 7 470 51 25 6 60
13 78 16 18 3 35 9 38 14 3 5 18 9 34 9 16 0 32 5 35 10 3 6 15 10 26 10 10 0
27 4 37 9 9 5 28 13 42 19 32 12 225 108 265 130 180 102 390 280 529 448 53
64 160 225 191 289 11 22 23 42 28 43 4 2 7 11 7 21 0 9 4 21 8 27 5 5 21 41
36 79 16 39 32 78 37 87 5 10 9 27 9 38 0 11 4 28 9 38 48 94 78 400 62 613
-14 167 -36 289 -62 341 -5 10 -9 27 -9 38 0 11 -4 28 -9 38 -5 9 -21 49 -37
87 -15 39 -31 74 -36 80 -4 5 -8 17 -8 27 0 10 -4 18 -10 18 -5 0 -10 9 -10
19 0 11 -4 22 -9 26 -6 3 -16 18 -24 33 -32 63 -61 109 -111 176 -88 116 -97
126 -201 229 -122 120 -258 224 -390 299 -40 22 -233 118 -265 130 -14 6 -33
14 -42 19 -10 5 -27 9 -37 9 -11 0 -23 5 -26 10 -3 6 -19 10 -35 10 -16 0 -31
4 -34 9 -3 5 -20 11 -38 14 -18 3 -53 10 -78 16 -200 47 -380 62 -615 49z
m400 -696 c28 -6 66 -15 85 -20 19 -6 46 -14 60 -17 64 -17 312 -140 330 -164
3 -4 28 -24 57 -44 74 -54 197 -189 259 -284 30 -46 54 -85 54 -88 0 -2 12
-30 26 -62 36 -81 40 -91 57 -153 33 -124 37 -156 37 -285 0 -129 -4 -161 -37
-285 -17 -62 -21 -72 -57 -153 -14 -32 -26 -60 -26 -62 0 -3 -24 -42 -54 -88
-89 -137 -254 -297 -376 -366 -99 -55 -196 -100 -260 -120 -41 -13 -86 -27
-100 -31 -14 -5 -45 -12 -70 -16 -58 -10 -423 -11 -475 -1 -88 17 -197 48
-210 59 -5 4 -15 8 -23 8 -45 0 -233 110 -354 207 -148 118 -293 325 -348 498
-7 22 -16 49 -21 60 -9 23 -16 63 -31 194 -13 107 4 318 31 386 5 11 14 38 21
60 12 36 73 167 104 222 31 55 152 199 213 255 125 112 421 268 510 268 12 0
25 5 28 10 3 6 23 10 43 11 20 0 46 4 57 9 26 12 406 5 470 -8z"/>
</g>
</svg>
