<?xml version="1.0" standalone="no"?>
<!DOCTYPE svg PUBLIC "-//W3C//DTD SVG 20010904//EN"
 "http://www.w3.org/TR/2001/REC-SVG-20010904/DTD/svg10.dtd">
<svg version="1.0" xmlns="http://www.w3.org/2000/svg"
 width="1000.000000pt" height="1000.000000pt" viewBox="0 0 1000.000000 1000.000000"
 preserveAspectRatio="xMidYMid meet">

<g transform="translate(0.000000,1000.000000) scale(0.100000,-0.100000)"
fill="#000000" stroke="none">
<path d="M1040 9974 c-41 -7 -85 -18 -98 -24 -13 -5 -32 -10 -42 -10 -19 0
-39 -8 -150 -57 -320 -144 -579 -425 -683 -743 -62 -191 -62 -186 -62 -815 0
-629 0 -624 62 -815 93 -284 336 -569 603 -705 19 -10 42 -22 50 -26 8 -5 22
-12 30 -15 8 -3 29 -12 45 -19 56 -24 174 -56 271 -74 85 -16 2503 -16 2588 0
34 6 82 18 108 25 26 8 54 14 62 14 8 0 32 7 53 16 21 9 47 20 58 24 22 8 131
62 167 82 13 7 54 36 93 64 186 134 327 306 414 504 50 114 58 139 93 280 19
79 19 1212 0 1285 -7 28 -20 77 -29 110 -17 67 -18 69 -64 175 -87 197 -228
370 -414 504 -39 28 -80 57 -93 64 -35 20 -145 74 -167 82 -11 4 -33 13 -50
20 -16 7 -46 16 -65 21 -19 4 -53 12 -75 17 -126 31 -179 32 -1396 31 -984 -1
-1249 -4 -1309 -15z m2547 -834 c89 -28 115 -43 178 -104 36 -36 66 -78 87
-123 l32 -68 0 -520 0 -520 -32 -68 c-35 -75 -116 -164 -180 -196 -105 -53
-58 -51 -1315 -51 -1113 0 -1168 1 -1226 19 -82 26 -140 61 -190 117 -52 58
-75 101 -95 181 -23 87 -24 946 -1 1032 41 158 130 250 295 305 39 13 202 15
1215 15 1134 1 1172 0 1232 -19z"/>
<path d="M6320 9974 c-41 -8 -82 -17 -90 -20 -8 -4 -31 -10 -50 -14 -73 -17
-152 -51 -285 -124 -81 -45 -156 -106 -260 -210 -172 -174 -285 -386 -337
-636 -19 -96 -19 -807 1 -870 21 -66 78 -147 133 -191 172 -136 403 -122 555
32 49 49 91 119 109 179 4 14 10 183 14 375 l6 350 31 67 c55 117 139 188 276
233 42 13 188 15 1216 15 1252 0 1190 2 1301 -48 82 -36 174 -144 210 -247 12
-33 15 -225 20 -1130 4 -967 7 -1095 21 -1132 56 -146 153 -230 307 -268 83
-20 128 -17 224 16 121 41 218 144 261 279 17 51 18 126 14 1160 -3 1194 -1
1145 -57 1325 -114 367 -426 685 -790 807 -209 70 -155 68 -1528 67 -986 -1
-1242 -4 -1302 -15z"/>
<path d="M5580 7341 c-30 -10 -71 -26 -90 -36 -45 -23 -140 -121 -161 -166 -9
-19 -22 -47 -30 -63 -20 -42 -21 -2078 -1 -2176 15 -72 38 -148 59 -197 7 -17
13 -34 13 -38 0 -18 82 -169 130 -241 79 -117 247 -280 361 -349 104 -64 259
-130 359 -155 153 -38 193 -39 1415 -39 1299 0 1289 -1 1480 56 58 17 66 20
160 64 425 198 701 613 722 1081 4 92 2 117 -17 173 -29 86 -72 149 -142 205
-82 66 -141 85 -263 85 -89 0 -107 -4 -155 -27 -30 -15 -74 -41 -96 -57 -81
-60 -154 -198 -154 -291 0 -180 -92 -346 -226 -410 -105 -50 -91 -49 -1309
-49 -1220 0 -1196 -1 -1301 49 -70 34 -150 118 -187 197 l-32 68 -5 1000 c-3
550 -9 1011 -14 1025 -71 226 -304 358 -516 291z"/>
<path d="M1270 6103 c-362 -10 -646 -124 -888 -357 -65 -63 -171 -196 -211
-266 -70 -122 -124 -268 -153 -410 -6 -30 -13 -190 -15 -355 -4 -300 -4 -300
21 -363 46 -118 117 -193 229 -245 51 -24 70 -27 162 -27 95 0 109 3 171 31
77 36 160 112 194 178 45 89 50 124 50 370 0 246 7 300 51 390 48 99 167 187
287 210 86 17 2319 14 2399 -3 123 -26 228 -113 286 -236 l31 -65 2 -1220 c2
-847 6 -1235 14 -1269 27 -119 119 -235 228 -287 102 -47 253 -47 357 2 72 34
160 125 198 206 l32 68 0 1285 c0 1027 -3 1295 -13 1335 -7 28 -20 77 -29 110
-8 33 -22 74 -29 92 -8 17 -14 34 -14 38 0 20 -119 237 -140 255 -3 3 -22 28
-43 56 -83 115 -280 276 -417 341 -122 58 -175 77 -280 101 -134 32 -220 34
-1301 36 -602 0 -1132 0 -1179 -1z"/>
<path d="M294 3691 c-140 -47 -230 -139 -279 -285 -13 -39 -15 -186 -12 -1188
3 -1205 1 -1153 46 -1323 15 -58 66 -180 108 -255 53 -98 112 -177 200 -266
189 -193 401 -306 681 -363 75 -15 2562 -15 2646 0 462 82 844 424 984 879 33
108 44 182 45 320 1 163 -7 189 -79 286 -78 105 -196 164 -329 164 -97 0 -160
-20 -239 -77 -117 -84 -167 -183 -181 -358 -13 -158 -70 -258 -195 -337 -56
-35 -72 -41 -168 -59 -34 -6 -485 -8 -1205 -7 -1232 3 -1157 0 -1266 52 -55
26 -147 118 -171 171 -52 112 -50 68 -50 1236 0 948 -2 1092 -15 1130 -27 78
-44 107 -97 164 -106 117 -282 165 -424 116z"/>
<path d="M6330 3308 c-85 -18 -175 -40 -195 -48 -124 -50 -161 -67 -230 -107
-309 -177 -522 -475 -606 -848 -20 -87 -20 -1200 -1 -1295 15 -72 38 -148 59
-197 7 -17 13 -34 13 -38 0 -18 84 -173 132 -243 72 -104 224 -255 328 -324
142 -94 319 -166 486 -197 83 -15 2569 -16 2646 0 200 40 378 116 516 219 86
63 230 204 271 264 14 21 38 57 54 80 38 56 101 189 125 261 65 200 65 201 69
795 4 574 3 601 -44 770 -54 199 -163 388 -312 542 -189 195 -403 307 -699
367 -68 14 -2546 13 -2612 -1z m2531 -832 c147 -45 241 -139 291 -291 10 -31
13 -151 13 -530 0 -448 -2 -494 -18 -540 -38 -103 -93 -174 -181 -230 -52 -32
-69 -38 -164 -56 -34 -6 -486 -9 -1205 -7 -1226 3 -1158 0 -1265 50 -67 32
-148 117 -185 195 l-32 68 0 525 0 525 38 71 c61 114 140 182 257 218 67 21
2383 23 2451 2z"/>
</g>
</svg>
