<?xml version="1.0" standalone="no"?>
<!DOCTYPE svg PUBLIC "-//W3C//DTD SVG 20010904//EN"
 "http://www.w3.org/TR/2001/REC-SVG-20010904/DTD/svg10.dtd">
<svg version="1.0" xmlns="http://www.w3.org/2000/svg"
 width="1000.000000pt" height="1000.000000pt" viewBox="0 0 1000.000000 1000.000000"
 preserveAspectRatio="xMidYMid meet">
<metadata>
Created by potrace 1.16, written by Peter Selinger 2001-2019
</metadata>
<g transform="translate(0.000000,1000.000000) scale(0.100000,-0.100000)"
fill="#000000" stroke="none">
<path d="M1635 9909 c-22 -5 -69 -13 -105 -18 -36 -5 -92 -17 -125 -26 -33 -9
-73 -19 -90 -22 -16 -3 -39 -12 -50 -19 -11 -8 -28 -14 -37 -14 -10 0 -26 -4
-36 -9 -9 -5 -44 -21 -77 -36 -33 -15 -67 -31 -75 -36 -8 -5 -33 -18 -55 -29
-45 -23 -54 -28 -144 -88 -57 -39 -86 -61 -180 -137 -43 -35 -146 -141 -187
-192 -21 -26 -42 -50 -45 -53 -12 -11 -89 -120 -89 -126 0 -4 -10 -21 -23 -38
-13 -17 -47 -80 -76 -141 -29 -60 -59 -123 -67 -138 -8 -16 -14 -37 -14 -46 0
-10 -3 -21 -7 -25 -8 -8 -29 -77 -43 -141 -5 -22 -13 -58 -18 -80 -31 -124
-32 -181 -32 -1266 0 -1027 1 -1107 18 -1149 42 -111 111 -188 207 -234 98
-46 205 -59 272 -31 19 8 42 15 50 15 22 0 122 67 159 108 29 32 46 61 95 167
5 12 10 462 12 1090 3 1067 5 1106 38 1220 57 197 205 402 367 511 31 22 59
41 62 44 7 8 107 55 155 73 47 18 100 32 175 49 42 9 802 13 3300 15 2906 3
3254 2 3330 -12 224 -41 342 -96 514 -239 105 -88 234 -296 275 -441 36 -132
36 -113 36 -2060 l0 -1900 -1175 -6 c-646 -3 -1191 -9 -1210 -13 -19 -4 -49
-14 -67 -22 -17 -8 -36 -14 -42 -14 -15 0 -98 -47 -151 -86 -50 -37 -126 -113
-158 -160 -33 -49 -82 -147 -82 -166 0 -9 -4 -20 -10 -23 -6 -3 -10 -21 -10
-39 0 -18 -7 -55 -15 -82 -8 -27 -15 -68 -15 -91 0 -23 -4 -45 -10 -48 -5 -3
-10 -18 -10 -33 0 -15 -7 -40 -15 -56 -8 -15 -15 -35 -15 -42 0 -8 -4 -22 -9
-32 -5 -9 -24 -48 -43 -87 -18 -38 -36 -71 -40 -73 -5 -2 -8 -8 -8 -13 0 -6
-25 -45 -57 -87 -86 -117 -224 -240 -338 -302 -22 -11 -47 -25 -55 -29 -41
-23 -127 -61 -138 -61 -7 0 -20 -4 -30 -9 -21 -12 -114 -38 -162 -45 -19 -3
-55 -10 -80 -15 -25 -6 -106 -10 -180 -10 -74 0 -155 4 -180 10 -25 5 -61 12
-80 15 -48 7 -141 33 -162 45 -10 5 -23 9 -30 9 -11 0 -97 38 -138 61 -8 4
-33 18 -55 29 -113 62 -253 187 -341 306 -30 40 -54 77 -54 83 0 5 -3 11 -7
13 -5 1 -23 35 -41 73 -19 39 -38 78 -43 87 -5 10 -9 24 -9 32 0 7 -7 27 -15
42 -8 16 -15 41 -15 56 0 15 -4 30 -10 33 -5 3 -10 26 -10 49 0 24 -7 63 -15
86 -8 23 -15 58 -15 76 0 19 -4 42 -9 52 -5 9 -17 37 -27 62 -42 105 -128 214
-224 284 -53 39 -136 86 -151 86 -6 0 -25 6 -42 14 -18 8 -48 18 -67 22 -44 9
-2789 21 -2850 12 -79 -12 -104 -20 -155 -53 -74 -47 -146 -126 -170 -185 -4
-8 -11 -23 -16 -33 -13 -24 -12 -2502 1 -2560 5 -23 14 -67 20 -97 25 -126 51
-225 63 -236 4 -4 7 -15 7 -25 0 -9 6 -30 14 -46 8 -15 38 -77 67 -138 29 -60
63 -124 76 -141 13 -17 23 -34 23 -38 0 -18 167 -223 241 -296 60 -59 79 -76
149 -130 25 -19 47 -37 50 -40 7 -7 118 -82 144 -97 12 -6 39 -21 61 -33 22
-11 47 -24 55 -29 34 -20 128 -61 175 -76 27 -9 54 -20 60 -24 5 -5 24 -11 40
-14 17 -3 57 -13 90 -22 33 -9 87 -21 120 -25 33 -5 84 -13 114 -19 38 -8 687
-11 2182 -11 2263 0 2153 -2 2249 43 57 27 142 101 161 142 5 11 13 27 18 35
18 30 29 66 41 128 30 148 -48 316 -188 405 -23 15 -56 30 -72 34 -17 3 -33
10 -36 14 -3 5 -926 9 -2111 9 -2220 0 -2149 -1 -2308 41 -68 19 -220 82 -235
99 -3 3 -31 22 -62 44 -162 109 -310 314 -367 511 -33 113 -35 156 -38 1091
-3 789 -1 943 10 953 11 8 292 10 1072 9 l1058 -3 18 -50 c10 -27 18 -64 18
-82 1 -17 5 -34 10 -37 5 -3 11 -20 14 -38 4 -29 42 -139 66 -193 28 -61 125
-255 144 -286 97 -160 330 -416 472 -520 33 -24 62 -46 65 -49 9 -9 100 -70
105 -70 3 0 28 -15 57 -33 58 -36 198 -105 268 -132 25 -9 52 -20 60 -24 8 -4
42 -15 75 -25 33 -10 68 -22 77 -27 10 -5 31 -9 47 -9 16 0 42 -5 58 -11 79
-33 308 -52 525 -45 165 5 200 10 318 38 25 6 62 13 83 16 20 2 40 8 43 13 3
5 15 9 27 9 12 0 35 7 51 15 15 8 37 15 47 15 10 0 21 4 24 10 3 6 13 10 22
10 8 0 31 7 51 16 87 39 148 67 162 75 8 5 31 16 50 26 19 9 49 27 66 40 17
13 34 23 37 23 6 0 96 59 107 70 3 3 32 25 65 49 142 104 375 360 472 520 23
38 119 230 146 291 18 43 61 171 75 225 5 22 19 69 29 105 l19 65 1058 3 c781
1 1062 -1 1073 -9 11 -10 13 -164 10 -953 -3 -943 -4 -967 -38 -1091 -37 -134
-140 -306 -244 -410 -110 -111 -274 -206 -420 -243 -150 -39 -196 -42 -600
-42 -433 0 -434 0 -530 -58 -179 -109 -243 -334 -149 -527 22 -46 102 -145
117 -145 3 0 23 -10 44 -22 96 -57 101 -58 569 -58 271 0 451 4 485 11 30 6
81 14 114 19 109 15 297 72 415 127 25 11 52 24 60 27 8 3 31 16 50 27 19 12
49 29 67 39 33 17 144 91 153 100 3 3 32 27 65 52 84 64 179 159 255 253 83
103 120 152 120 161 0 4 10 21 23 38 21 28 107 199 137 271 21 51 62 178 71
220 4 22 13 65 19 95 6 30 15 74 21 98 12 58 12 6706 0 6764 -6 24 -15 68 -21
98 -6 30 -15 73 -19 95 -9 42 -50 169 -71 220 -30 72 -116 243 -137 271 -13
17 -23 34 -23 38 0 6 -77 115 -89 126 -3 3 -24 27 -45 53 -58 73 -152 165
-234 230 -88 70 -199 147 -212 147 -6 0 -10 4 -10 8 0 5 -21 18 -47 30 -27 12
-55 26 -63 31 -8 5 -42 21 -75 36 -33 15 -68 31 -77 36 -10 5 -26 9 -36 9 -9
0 -26 6 -37 14 -11 7 -33 16 -50 19 -16 3 -57 13 -90 22 -33 9 -87 21 -120 25
-33 5 -84 13 -114 19 -66 14 -6664 13 -6726 0z"/>
</g>
</svg>
