<?xml version="1.0" standalone="no"?>
<!DOCTYPE svg PUBLIC "-//W3C//DTD SVG 20010904//EN"
 "http://www.w3.org/TR/2001/REC-SVG-20010904/DTD/svg10.dtd">
<svg version="1.0" xmlns="http://www.w3.org/2000/svg"
 width="1000.000000pt" height="1000.000000pt" viewBox="0 0 1000.000000 1000.000000"
 preserveAspectRatio="xMidYMid meet">
<metadata>
Created by potrace 1.16, written by Peter Selinger 2001-2019
</metadata>
<g transform="translate(0.000000,1000.000000) scale(0.100000,-0.100000)"
fill="#000000" stroke="none">
<path d="M7075 9970 c-104 -4 -233 -14 -285 -23 -52 -9 -152 -21 -222 -27 -71
-6 -149 -18 -175 -26 -27 -8 -95 -21 -153 -30 -58 -9 -117 -22 -132 -30 -15
-8 -65 -21 -110 -30 -46 -8 -93 -22 -105 -30 -13 -8 -52 -21 -89 -30 -36 -8
-76 -21 -88 -29 -13 -9 -46 -22 -74 -30 -29 -9 -67 -24 -85 -34 -17 -10 -49
-24 -69 -30 -20 -7 -42 -18 -48 -26 -6 -8 -33 -21 -60 -30 -27 -9 -54 -23 -61
-31 -6 -8 -30 -23 -53 -34 -108 -52 -310 -225 -404 -346 -13 -16 -34 -43 -48
-61 -13 -17 -31 -48 -40 -70 -9 -21 -22 -45 -28 -53 -21 -25 -76 -206 -86
-283 -5 -42 -10 -691 -10 -1558 0 -1217 -2 -1489 -13 -1497 -17 -14 -76 1
-132 33 -22 12 -56 26 -75 30 -19 4 -53 18 -75 30 -22 13 -64 28 -93 34 -29 6
-63 18 -76 26 -13 9 -54 22 -92 30 -38 8 -94 23 -124 34 -30 11 -89 24 -130
30 -42 5 -92 17 -111 25 -20 8 -99 22 -176 30 -78 9 -173 23 -211 31 -179 37
-895 46 -961 11 -17 -9 -46 -23 -63 -32 -55 -28 -108 -85 -145 -159 -34 -65
-36 -77 -37 -160 0 -83 2 -95 33 -155 38 -76 137 -175 191 -191 19 -6 160 -15
313 -19 153 -5 285 -11 295 -14 9 -3 112 -12 227 -21 124 -10 241 -24 285 -36
41 -10 118 -25 171 -33 53 -8 109 -21 125 -29 16 -8 61 -20 99 -27 39 -7 84
-20 100 -30 17 -10 55 -23 85 -30 30 -7 66 -21 80 -30 14 -10 44 -23 66 -29
23 -6 52 -19 65 -29 13 -10 40 -24 59 -32 19 -7 44 -21 55 -30 11 -10 34 -25
50 -33 39 -20 135 -106 175 -157 46 -59 49 -93 9 -147 -61 -86 -173 -179 -268
-223 -23 -11 -54 -29 -68 -39 -13 -11 -38 -23 -56 -27 -18 -3 -44 -15 -58 -25
-14 -10 -48 -23 -75 -30 -27 -7 -66 -20 -86 -31 -21 -10 -69 -25 -108 -33 -39
-8 -83 -21 -98 -29 -15 -8 -66 -20 -112 -26 -47 -6 -112 -20 -145 -30 -33 -11
-114 -24 -180 -30 -66 -6 -191 -20 -278 -31 -200 -24 -567 -26 -732 -4 -60 9
-182 22 -270 30 -88 8 -189 24 -225 35 -36 10 -101 24 -145 31 -44 6 -92 17
-107 25 -15 8 -63 21 -105 30 -43 9 -87 22 -98 29 -11 6 -47 20 -80 29 -33 10
-70 24 -83 32 -13 9 -41 22 -63 29 -22 8 -52 23 -67 33 -15 11 -38 23 -52 27
-14 4 -37 17 -52 29 -15 11 -51 37 -79 56 -137 92 -187 187 -143 272 25 48
127 142 194 178 37 20 133 96 166 132 17 18 46 64 65 101 67 140 34 294 -91
416 -55 53 -67 60 -143 80 -45 12 -90 21 -101 21 -37 0 -181 -44 -201 -60 -11
-10 -36 -26 -55 -35 -43 -22 -152 -100 -195 -140 -18 -16 -51 -46 -73 -65 -35
-31 -91 -96 -185 -215 -13 -16 -29 -45 -36 -64 -6 -19 -18 -42 -26 -51 -8 -9
-22 -45 -31 -80 -9 -36 -24 -78 -33 -95 -15 -27 -16 -180 -16 -1800 0 -1620 1
-1773 16 -1800 9 -16 24 -58 32 -91 9 -34 27 -79 41 -99 15 -21 26 -43 26 -50
0 -6 9 -20 19 -32 10 -11 27 -35 36 -54 18 -34 119 -157 142 -172 6 -4 36 -30
65 -58 29 -27 67 -57 83 -66 17 -9 44 -27 60 -40 41 -34 137 -93 151 -93 6 0
19 -9 29 -20 10 -11 37 -25 59 -32 23 -6 51 -20 64 -29 13 -10 40 -23 60 -30
20 -6 60 -22 87 -34 48 -23 82 -35 210 -76 33 -11 80 -27 105 -35 25 -9 77
-22 115 -30 39 -8 97 -23 130 -34 33 -11 112 -26 175 -35 63 -8 139 -21 168
-29 28 -8 125 -19 215 -25 615 -43 586 -42 799 -27 112 8 281 20 377 26 96 7
195 18 220 26 25 7 100 21 166 29 66 9 137 22 158 31 22 8 80 23 130 34 83 17
117 27 267 77 129 43 183 64 203 78 12 8 29 15 37 15 9 0 58 22 110 49 52 28
118 61 145 74 28 13 56 31 64 40 7 10 18 17 24 17 5 0 26 12 45 28 20 15 44
32 53 37 43 25 176 149 244 228 65 76 135 192 154 257 23 80 66 112 109 82 15
-11 45 -25 67 -33 22 -7 49 -21 60 -30 11 -9 41 -21 67 -28 26 -6 62 -20 80
-31 18 -10 58 -24 88 -31 30 -6 65 -18 78 -26 13 -8 60 -22 105 -32 45 -11 98
-26 117 -34 19 -8 76 -20 125 -27 50 -7 106 -19 125 -27 19 -8 114 -23 210
-34 96 -10 193 -23 215 -29 22 -6 158 -15 303 -21 303 -12 767 1 867 25 33 7
119 19 190 25 72 7 159 20 195 31 36 10 103 24 150 30 47 7 104 21 128 31 24
10 71 23 105 29 34 6 78 19 97 29 19 10 60 24 90 31 30 7 69 20 85 30 17 10
50 23 75 30 25 6 56 19 70 28 14 9 47 24 74 34 27 10 56 24 65 31 9 8 32 20
51 27 19 8 48 24 63 37 16 13 34 23 41 23 7 0 31 13 52 30 22 16 59 44 83 62
144 109 239 207 318 333 72 115 81 132 88 165 4 19 18 56 31 82 l24 47 0 3381
0 3381 -21 42 c-12 23 -28 69 -36 102 -8 33 -21 70 -29 83 -9 13 -21 40 -28
60 -13 36 -56 111 -93 161 -23 31 -162 169 -202 201 -17 14 -43 35 -58 47 -67
54 -143 101 -250 152 -34 17 -64 35 -67 40 -4 5 -23 15 -44 21 -20 6 -57 22
-82 34 -85 44 -238 41 -314 -5 -51 -32 -136 -109 -136 -124 0 -6 -9 -20 -19
-29 -25 -22 -41 -97 -41 -184 1 -124 18 -167 105 -256 57 -58 82 -76 128 -92
23 -8 48 -21 57 -28 8 -8 27 -17 42 -21 44 -11 197 -112 271 -180 24 -22 54
-62 67 -88 21 -44 21 -52 10 -88 -7 -22 -28 -57 -47 -78 -37 -44 -169 -147
-223 -174 -19 -9 -46 -24 -60 -31 -60 -34 -139 -69 -184 -83 -27 -8 -59 -21
-70 -28 -12 -8 -52 -21 -89 -29 -37 -9 -80 -22 -96 -30 -15 -8 -69 -22 -119
-31 -50 -8 -110 -22 -133 -30 -23 -8 -102 -22 -175 -30 -74 -8 -169 -23 -211
-32 -68 -16 -135 -18 -523 -18 -388 0 -455 2 -524 18 -44 9 -138 24 -210 32
-72 8 -151 21 -174 29 -24 9 -84 23 -134 31 -50 9 -104 23 -119 31 -16 8 -59
21 -96 30 -37 8 -77 21 -88 28 -11 7 -47 21 -80 30 -33 10 -67 24 -75 32 -9 7
-35 20 -59 29 -23 8 -54 23 -67 34 -14 11 -41 25 -60 31 -19 6 -34 16 -34 21
0 4 -14 16 -31 25 -54 27 -163 145 -178 190 -12 37 -11 46 8 89 21 48 93 125
147 157 16 10 49 31 74 47 60 40 189 106 236 121 20 7 51 21 68 30 17 10 56
23 86 30 30 7 71 21 90 30 19 10 58 21 85 25 28 4 82 17 120 30 39 12 115 28
170 34 54 6 122 18 150 26 76 22 258 35 590 41 l300 6 84 29 c47 17 94 40 106
53 12 13 26 25 31 27 44 19 114 180 114 263 0 57 -39 188 -63 214 -68 73 -108
105 -163 131 -56 26 -71 29 -215 33 -85 3 -239 2 -344 -2z m2203 -3486 l2
-1111 -21 -48 c-24 -55 -95 -134 -148 -167 -19 -12 -43 -30 -53 -40 -10 -10
-24 -18 -32 -18 -8 0 -27 -11 -43 -23 -15 -13 -43 -29 -61 -35 -18 -6 -45 -20
-60 -31 -15 -10 -47 -24 -72 -31 -25 -6 -58 -20 -75 -30 -16 -10 -57 -23 -90
-30 -32 -7 -69 -19 -81 -26 -12 -8 -59 -21 -105 -30 -46 -8 -102 -22 -124 -31
-22 -8 -98 -24 -170 -33 -71 -10 -161 -25 -200 -34 -119 -26 -575 -40 -890
-27 -163 7 -298 18 -340 27 -39 9 -128 24 -200 34 -71 10 -157 27 -190 38 -33
11 -85 23 -115 27 -30 4 -72 16 -92 26 -21 11 -61 24 -90 30 -29 6 -66 19 -83
29 -16 10 -50 24 -75 30 -25 7 -56 20 -70 29 -14 10 -41 24 -60 31 -19 7 -42
19 -50 25 -8 7 -30 20 -48 29 -35 18 -100 66 -164 120 -20 18 -51 60 -68 94
l-30 61 0 300 0 301 32 0 c28 0 63 -14 183 -71 22 -10 59 -23 83 -29 23 -6 57
-19 75 -29 17 -10 59 -24 92 -31 33 -7 69 -19 80 -26 12 -8 59 -21 105 -29 47
-9 101 -22 120 -31 20 -8 92 -24 160 -34 69 -11 154 -26 190 -34 36 -8 137
-19 225 -26 88 -6 219 -18 290 -26 167 -18 463 -18 630 0 72 8 202 20 290 26
181 13 389 57 438 94 77 56 140 134 156 191 14 51 14 199 0 250 -19 69 -96
156 -184 206 l-60 34 -135 -1 c-104 -1 -159 -6 -240 -25 -103 -24 -114 -24
-585 -24 -457 0 -485 1 -585 22 -58 12 -152 27 -210 33 -57 6 -119 18 -138 26
-18 7 -73 21 -120 29 -48 9 -107 24 -132 35 -25 10 -70 24 -100 31 -30 6 -68
19 -85 29 -16 10 -50 24 -75 30 -25 7 -56 20 -70 30 -14 9 -39 22 -55 27 -17
6 -48 22 -69 37 -21 14 -43 26 -49 26 -5 0 -23 11 -41 25 -149 122 -165 137
-190 191 l-26 55 0 298 c0 263 2 300 16 305 29 11 61 6 78 -13 9 -10 38 -24
64 -31 26 -7 58 -19 71 -28 22 -13 84 -37 201 -75 25 -8 74 -25 110 -37 36
-12 103 -29 150 -39 47 -10 103 -25 125 -33 22 -8 85 -21 140 -28 55 -6 134
-20 175 -30 41 -10 152 -23 245 -29 94 -6 224 -16 290 -22 221 -21 948 11
1089 47 33 9 117 24 187 34 71 11 138 24 149 30 12 6 62 20 113 30 83 17 119
27 267 77 107 36 178 63 215 82 21 12 44 21 51 21 6 0 29 14 50 30 29 24 46
30 73 28 l36 -3 3 -1111z m-3797 -2149 c39 -13 85 -33 102 -44 18 -10 48 -22
67 -26 19 -4 50 -15 68 -26 18 -10 62 -26 98 -34 36 -8 78 -22 94 -30 16 -9
67 -22 112 -31 45 -9 94 -22 108 -29 14 -7 76 -21 138 -30 63 -9 130 -22 151
-30 20 -7 95 -18 167 -25 71 -6 203 -20 294 -31 232 -27 673 -27 897 0 87 11
215 24 285 31 71 6 149 18 175 26 27 8 97 21 157 30 60 8 122 22 138 30 16 8
65 21 108 29 43 8 96 23 117 33 21 11 58 23 83 27 25 4 60 15 78 26 18 10 54
24 80 30 26 7 65 22 87 34 59 33 162 68 180 61 13 -5 15 -46 15 -304 l0 -298
-27 -55 c-15 -29 -45 -72 -67 -94 -38 -38 -61 -54 -136 -100 -18 -11 -44 -29
-59 -41 -14 -11 -41 -26 -59 -32 -18 -6 -45 -20 -60 -30 -15 -11 -40 -22 -57
-26 -16 -4 -50 -18 -75 -30 -25 -13 -69 -28 -98 -35 -29 -6 -69 -19 -90 -30
-20 -10 -62 -22 -92 -26 -30 -4 -77 -16 -105 -26 -27 -11 -102 -26 -165 -35
-63 -8 -137 -22 -164 -30 -89 -26 -314 -38 -696 -38 -408 0 -606 12 -734 46
-58 15 -114 21 -197 22 -109 1 -118 0 -155 -25 -21 -15 -51 -33 -65 -40 -37
-20 -105 -102 -119 -145 -7 -20 -18 -48 -26 -62 -25 -48 -18 -148 17 -232 16
-41 41 -85 53 -97 13 -12 26 -26 27 -30 11 -25 95 -75 146 -87 32 -7 83 -21
113 -29 30 -9 125 -23 210 -31 85 -9 205 -23 265 -31 90 -13 184 -15 520 -12
240 3 429 9 455 15 25 6 119 18 210 27 91 9 197 24 235 35 39 10 106 24 150
30 44 6 100 19 125 29 25 10 77 24 115 30 39 7 80 18 91 26 12 8 50 21 85 30
35 8 80 24 99 34 19 10 49 22 65 25 17 4 57 20 91 37 58 28 154 53 164 42 3
-2 6 -135 8 -294 l3 -290 -26 -58 c-15 -32 -43 -74 -63 -94 -49 -47 -143 -117
-158 -117 -6 0 -18 -7 -25 -16 -8 -9 -34 -25 -59 -36 -25 -11 -52 -25 -60 -33
-8 -7 -40 -21 -72 -30 -31 -9 -62 -22 -68 -30 -6 -8 -37 -19 -68 -26 -31 -6
-73 -19 -92 -29 -19 -10 -70 -25 -112 -34 -42 -8 -93 -22 -113 -30 -20 -9 -75
-20 -123 -27 -48 -6 -122 -19 -165 -30 -158 -40 -748 -69 -992 -50 -82 6 -213
16 -290 22 -77 5 -174 18 -215 29 -41 10 -115 23 -164 30 -49 6 -106 18 -125
26 -20 9 -69 22 -109 30 -40 7 -89 22 -110 33 -20 10 -55 21 -77 25 -22 4 -60
18 -85 30 -25 13 -63 29 -85 36 -22 7 -51 21 -64 31 -13 11 -29 19 -35 19 -12
0 -86 45 -169 102 -76 53 -120 99 -149 158 l-28 55 0 1113 c0 988 2 1112 15
1112 9 0 47 -11 86 -25z m-831 -1044 l0 -306 -30 -47 c-40 -64 -176 -178 -270
-226 -25 -12 -61 -31 -80 -42 -19 -10 -42 -19 -51 -20 -9 0 -22 -7 -29 -15 -7
-8 -38 -22 -69 -31 -31 -9 -72 -24 -91 -34 -19 -10 -62 -23 -95 -30 -33 -6
-78 -20 -100 -29 -22 -10 -79 -23 -125 -30 -47 -7 -107 -21 -135 -31 -27 -9
-111 -23 -185 -30 -74 -7 -166 -19 -205 -27 -109 -24 -743 -29 -890 -8 -60 8
-175 22 -255 31 -80 8 -175 24 -212 34 -89 27 -230 27 -273 2 -16 -10 -46 -24
-65 -32 -45 -18 -95 -69 -140 -140 l-34 -55 -1 -127 c0 -115 2 -128 21 -150
12 -13 25 -33 29 -46 3 -12 33 -45 65 -74 83 -73 161 -100 385 -132 55 -8 136
-22 180 -30 268 -49 1265 -43 1475 9 30 8 110 21 178 30 67 8 139 22 160 30
20 8 76 21 125 30 48 9 106 25 130 35 23 10 62 21 87 25 25 4 61 15 80 25 19
10 62 25 94 34 32 10 69 24 81 32 11 7 43 20 69 28 26 8 57 22 67 32 11 10 36
18 62 18 l42 1 3 -312 2 -313 -35 -52 c-35 -54 -109 -124 -155 -148 -14 -7
-28 -19 -33 -26 -4 -7 -31 -24 -60 -38 -28 -14 -59 -30 -67 -35 -34 -20 -148
-71 -197 -86 -29 -9 -55 -20 -58 -25 -3 -4 -40 -16 -82 -25 -43 -10 -90 -24
-106 -31 -15 -8 -74 -23 -131 -33 -57 -11 -113 -24 -124 -30 -11 -6 -82 -18
-159 -26 -76 -9 -174 -23 -218 -33 -69 -15 -142 -17 -520 -17 -380 0 -452 2
-530 18 -49 9 -147 24 -216 32 -70 7 -143 21 -163 29 -20 8 -73 20 -118 27
-46 6 -108 22 -138 34 -30 13 -75 26 -100 30 -25 4 -60 15 -78 26 -18 10 -54
24 -80 31 -26 6 -59 19 -74 30 -15 10 -46 25 -69 33 -24 9 -50 22 -59 29 -8 8
-31 22 -51 32 -74 39 -104 61 -174 129 -64 62 -74 76 -84 123 -8 37 -11 373
-11 1137 l0 1084 21 12 c28 14 68 6 113 -24 19 -14 52 -28 72 -32 20 -3 48
-15 63 -25 14 -10 51 -24 81 -31 30 -6 65 -19 77 -27 13 -8 58 -22 100 -32 43
-10 94 -25 113 -33 19 -8 69 -20 110 -27 41 -6 102 -20 135 -31 33 -10 105
-23 160 -29 55 -6 143 -19 195 -30 247 -50 1227 -47 1428 4 32 8 107 20 167
26 61 6 137 20 170 30 33 11 99 26 147 34 48 8 99 21 115 29 15 8 55 20 88 27
33 7 76 20 95 30 19 9 58 23 85 29 28 7 65 21 82 31 18 11 52 24 75 30 24 6
55 20 70 31 35 24 99 39 116 26 9 -7 12 -82 12 -316z"/>
</g>
</svg>
