<?xml version="1.0" standalone="no"?>
<!DOCTYPE svg PUBLIC "-//W3C//DTD SVG 20010904//EN"
 "http://www.w3.org/TR/2001/REC-SVG-20010904/DTD/svg10.dtd">
<svg version="1.0" xmlns="http://www.w3.org/2000/svg"
 width="1000.000000pt" height="1000.000000pt" viewBox="0 0 1000.000000 1000.000000"
 preserveAspectRatio="xMidYMid meet">
<metadata>
Created by potrace 1.16, written by Peter Selinger 2001-2019
</metadata>
<g transform="translate(0.000000,1000.000000) scale(0.100000,-0.100000)"
fill="#000000" stroke="none">
<path d="M3367 9214 c-3 -4 1 -17 10 -31 35 -53 -28 -72 -239 -73 -126 0 -158
-6 -128 -25 17 -11 11 -43 -12 -59 -17 -12 -50 -16 -141 -16 -110 0 -119 -1
-112 -17 4 -10 10 -28 12 -40 7 -29 -20 -40 -121 -49 l-75 -7 6 -27 c10 -51
-10 -69 -80 -72 l-62 -3 0 -35 c0 -32 -4 -36 -40 -48 -53 -18 -151 -115 -162
-162 -8 -31 -12 -35 -42 -35 -26 0 -36 -5 -42 -23 -5 -12 -6 -29 -3 -37 9 -24
-4 -63 -25 -75 -13 -7 -28 -7 -45 0 -25 9 -26 8 -26 -26 0 -42 -19 -124 -33
-141 -15 -20 -45 -15 -59 10 -11 19 -14 3 -18 -115 -5 -124 -7 -140 -27 -159
-21 -21 -23 -21 -47 -5 -14 9 -27 15 -27 14 -1 -2 -5 -122 -8 -268 -5 -238 -8
-269 -25 -295 l-19 -29 -29 34 -28 34 0 -387 c0 -356 5 -430 25 -368 8 27 37
36 52 15 15 -21 33 -103 33 -154 0 -38 0 -39 33 -33 46 7 71 -18 62 -64 l-6
-33 258 2 258 3 -3 36 c-5 53 23 83 76 81 l42 -2 1 458 c0 326 4 467 12 492
15 43 48 52 71 18 18 -25 18 -29 21 208 1 61 5 123 9 138 7 27 10 28 50 24
l43 -5 -5 48 -5 49 69 65 c38 35 77 67 86 70 10 4 21 17 24 30 11 45 40 60
110 58 63 -3 75 2 53 24 -19 19 -6 57 21 64 14 4 86 8 160 9 74 1 144 5 155 9
20 8 20 8 -2 15 -26 8 -37 34 -23 51 23 28 102 35 399 35 164 0 306 -3 315 -6
8 -3 20 -21 26 -40 8 -23 18 -34 31 -34 10 0 28 -9 40 -21 19 -19 20 -28 14
-85 -4 -40 -3 -64 3 -64 5 0 12 7 16 15 3 8 17 15 31 15 42 0 46 -21 54 -255
l1 -29 16 22 c8 12 24 22 35 22 32 0 49 -56 49 -164 l0 -95 30 17 c28 16 30
16 52 -5 20 -21 22 -31 20 -118 -3 -103 2 -123 23 -105 22 18 58 8 72 -20 9
-18 13 -90 13 -256 0 -265 -2 -271 -67 -261 l-41 7 5 -43 c7 -59 -15 -81 -69
-73 l-38 6 2 -41 c2 -54 -21 -73 -76 -63 l-38 6 6 -39 c9 -51 -15 -75 -70 -71
l-39 3 0 -43 c0 -48 -16 -65 -55 -58 -38 6 -63 -11 -56 -40 7 -28 -27 -69 -50
-60 -24 9 -54 -12 -54 -39 0 -42 -10 -55 -44 -55 -40 0 -56 -16 -56 -56 0 -40
-21 -58 -59 -51 -34 7 -44 -8 -34 -53 7 -37 -13 -87 -38 -95 -10 -3 -28 -1
-39 5 -12 7 -24 9 -27 6 -6 -6 -6 -896 0 -902 2 -3 16 1 31 7 22 10 29 9 46
-6 18 -16 20 -31 21 -134 1 -64 4 -127 8 -140 6 -21 8 -22 20 -7 7 9 22 16 33
16 30 0 48 -57 48 -152 0 -77 1 -81 16 -60 17 24 46 29 62 10 16 -20 32 -114
26 -147 -4 -17 -3 -38 0 -47 6 -16 8 -15 25 1 22 19 56 13 65 -11 3 -8 9 -50
12 -93 l7 -79 37 5 c50 7 74 -24 64 -85 -9 -57 -1 -76 26 -60 14 9 25 10 37 2
19 -12 43 -85 43 -136 l0 -36 31 11 c28 11 33 10 55 -17 22 -24 24 -34 18 -73
l-6 -44 36 6 c47 9 66 -7 66 -55 0 -55 8 -70 39 -70 33 0 51 -16 51 -45 0 -26
25 -50 63 -59 20 -5 29 -14 34 -37 6 -31 36 -59 65 -59 23 0 48 -27 42 -45 -3
-8 -15 -17 -26 -21 -16 -5 -18 -8 -7 -15 15 -10 462 -13 472 -3 3 3 1 16 -5
29 -18 39 5 65 57 65 l45 0 0 49 c0 38 6 57 23 77 20 23 26 25 45 15 12 -7 27
-9 32 -6 11 7 14 273 4 300 -6 15 -8 15 -24 0 -38 -34 -54 -16 -75 82 -18 86
-21 92 -41 87 -32 -8 -61 11 -84 56 -11 22 -27 40 -36 40 -28 0 -64 47 -64 83
0 31 -2 33 -29 29 -21 -3 -35 2 -51 18 -19 19 -21 29 -15 76 3 30 4 54 1 54
-2 0 -16 -4 -31 -10 -41 -16 -61 13 -70 100 -7 68 -8 71 -30 66 -55 -14 -89
34 -78 110 7 50 9 49 -41 28 -8 -3 -24 4 -35 15 -21 21 -27 69 -21 164 l2 38
-36 -7 c-55 -10 -63 4 -71 111 l-7 93 -36 -5 c-56 -9 -62 8 -62 170 0 129 -1
139 -17 132 -59 -25 -76 -11 -88 66 -5 37 -3 49 15 72 12 15 28 27 35 27 7 0
23 15 34 34 23 37 39 46 77 46 19 0 24 5 24 28 0 15 6 35 14 44 16 22 61 39
82 31 11 -4 15 -1 13 13 -9 56 40 105 89 90 17 -6 20 -2 19 28 -1 51 28 79 74
73 l37 -5 -5 37 c-7 51 21 76 77 68 l41 -5 -7 33 c-10 53 9 75 62 75 l45 0 -7
34 c-5 29 -2 39 20 61 21 21 32 25 56 20 29 -6 30 -5 30 30 0 41 34 115 53
115 7 0 22 -7 34 -15 20 -14 20 -14 25 94 3 80 9 116 21 135 21 31 41 33 60 6
14 -21 14 -21 21 2 8 30 8 742 0 763 -6 15 -8 15 -25 0 -21 -20 -54 -13 -64
13 -3 9 -9 72 -12 140 -6 113 -12 138 -28 112 -11 -17 -43 -11 -59 12 -12 17
-16 48 -16 120 0 89 -9 124 -25 98 -10 -15 -51 -12 -66 6 -8 10 -14 52 -16
116 -1 56 -5 103 -8 106 -3 3 -11 0 -17 -6 -19 -19 -45 -14 -62 10 -12 17 -16
48 -16 125 0 57 -2 103 -5 103 -3 0 -14 -5 -24 -12 -43 -27 -65 8 -77 121 l-7
72 -29 -6 c-45 -10 -68 16 -68 77 l0 49 -34 -3 c-47 -3 -67 16 -64 61 l3 36
-45 3 c-55 4 -73 23 -64 70 l7 35 -38 -7 c-72 -14 -123 31 -95 83 10 21 9 21
-78 21 -49 0 -103 5 -120 11 -38 13 -50 44 -27 68 15 17 15 19 0 25 -21 8
-910 8 -918 0z"/>
<path d="M2260 6085 c0 -2 5 -16 12 -29 18 -41 -10 -64 -81 -68 l-56 -3 -3
-40 c-5 -53 -18 -67 -61 -63 l-36 3 -3 -240 c-1 -132 0 -245 2 -252 4 -9 12
-9 35 0 26 10 34 9 48 -6 15 -15 19 -42 23 -169 4 -130 7 -149 19 -135 19 24
47 21 65 -5 12 -17 16 -48 16 -125 l0 -103 38 6 c26 4 42 2 49 -8 6 -7 15 -68
19 -134 7 -118 7 -121 25 -103 49 49 78 -7 79 -148 0 -42 4 -73 10 -73 6 0 10
4 10 9 0 15 40 24 54 11 17 -13 41 -133 32 -156 -4 -9 -4 -31 0 -49 6 -33 6
-33 25 -14 10 10 23 19 29 19 23 0 42 -53 47 -129 5 -76 7 -80 25 -70 28 15
67 3 73 -24 2 -12 6 -56 8 -97 2 -41 8 -74 13 -74 5 1 19 5 31 8 15 5 28 1 42
-13 16 -16 20 -33 20 -102 0 -45 2 -83 5 -86 2 -2 13 1 24 8 11 7 27 9 36 6
27 -11 48 -74 41 -119 l-7 -39 36 6 c53 10 63 -3 71 -99 l7 -84 32 5 c49 8 66
-15 66 -91 0 -34 3 -66 6 -69 4 -3 16 0 27 8 29 20 54 3 61 -42 3 -21 9 -57
12 -80 6 -40 8 -41 38 -36 46 7 71 -25 70 -87 l-2 -48 34 5 c45 7 64 -10 64
-57 0 -21 3 -52 6 -69 6 -29 10 -31 34 -26 24 5 30 1 50 -32 12 -21 25 -54 27
-74 5 -32 8 -35 33 -31 41 6 70 -27 70 -79 0 -39 1 -41 26 -35 17 5 35 1 51
-9 21 -14 24 -23 22 -63 l-3 -47 37 3 c49 5 69 -12 67 -57 -3 -58 -2 -60 43
-63 42 -3 42 -3 47 -48 5 -44 6 -45 47 -51 53 -7 55 -9 62 -62 6 -39 8 -42 41
-45 46 -5 58 -16 62 -60 3 -34 6 -37 38 -40 46 -5 58 -16 62 -60 3 -35 5 -37
43 -42 58 -8 67 -17 63 -59 l-3 -36 50 -3 c65 -4 78 -16 72 -65 l-5 -38 38 6
c34 6 43 3 66 -20 21 -21 25 -33 20 -56 -5 -28 -4 -29 33 -29 24 0 48 -8 65
-21 26 -21 34 -53 16 -64 -24 -15 6 -25 74 -25 58 0 79 -4 97 -19 22 -17 23
-22 12 -50 l-11 -31 52 0 c39 0 58 -5 74 -20 23 -22 29 -54 12 -65 -25 -15 8
-25 86 -25 71 0 87 -3 104 -20 24 -24 24 -29 4 -58 -17 -24 -26 -23 137 -27
26 0 54 -7 63 -14 18 -15 22 -56 6 -66 -26 -16 9 -25 95 -25 52 0 105 -4 118
-9 32 -12 42 -39 22 -61 -8 -9 -15 -19 -15 -23 0 -3 65 -7 145 -9 133 -3 146
-5 166 -25 21 -20 21 -23 6 -46 -15 -23 -15 -26 -1 -31 24 -9 977 -7 992 3 10
6 10 10 -3 21 -8 7 -15 21 -15 32 0 33 57 48 181 48 108 0 111 1 96 18 -25 27
-22 61 6 67 90 20 121 24 143 19 24 -6 24 -5 18 34 -6 36 -3 42 20 57 18 12
37 16 60 12 44 -7 59 3 50 37 -8 35 10 56 50 56 36 0 76 31 76 58 0 10 18 27
45 41 25 13 65 47 90 76 24 29 57 58 73 64 16 7 33 24 39 41 12 33 69 73 96
66 13 -3 17 2 17 23 0 38 57 104 85 99 18 -4 24 2 33 39 7 24 12 56 12 72 0
34 26 65 49 58 47 -13 45 -16 53 82 4 51 13 99 19 107 14 17 41 18 57 2 6 -6
14 -9 17 -7 10 11 17 505 10 702 -7 208 -7 208 -27 187 -45 -48 -76 4 -77 129
-1 66 -3 72 -18 66 -10 -5 -29 -8 -43 -9 -22 -1 -26 5 -36 49 -7 28 -13 67
-13 88 -1 37 -1 38 -35 32 -28 -6 -36 -3 -55 21 -19 24 -21 36 -16 71 l6 42
-35 -6 c-49 -8 -66 9 -66 66 0 58 -11 75 -47 76 -22 0 -31 8 -47 40 -10 22
-21 56 -23 76 -5 32 -8 35 -33 31 -45 -6 -72 28 -68 86 l3 45 -45 1 -45 1 -5
55 c-6 65 -16 83 -40 77 -10 -2 -22 -2 -27 2 -15 10 -63 109 -63 131 0 13 -7
20 -18 20 -22 0 -142 58 -142 69 0 3 7 16 15 28 14 20 13 22 -25 28 -21 4 -49
4 -60 0 -30 -10 -79 13 -86 40 -3 13 -1 33 6 44 11 21 9 21 -87 21 -156 0
-218 27 -174 74 l22 23 -38 7 c-21 3 -164 6 -318 6 -154 0 -297 -3 -318 -6
l-38 -7 22 -24 c21 -21 22 -25 7 -39 -19 -19 -82 -33 -150 -34 l-48 0 0 -44
c0 -60 -21 -80 -72 -72 l-38 6 2 -242 3 -243 38 0 c31 0 44 -7 69 -33 16 -19
27 -40 24 -48 -3 -8 -9 -20 -12 -28 -8 -20 137 -28 447 -24 251 3 268 2 288
-16 12 -11 21 -27 21 -37 0 -10 12 -25 28 -33 15 -8 53 -38 85 -68 53 -50 57
-57 57 -99 l0 -45 35 4 c52 6 65 -10 65 -79 0 -33 2 -59 4 -59 3 0 16 4 29 9
35 13 56 -5 63 -54 13 -100 17 -110 50 -107 40 4 67 -35 66 -93 l0 -40 38 3
c52 5 73 -24 64 -89 l-6 -47 41 5 c37 5 41 3 52 -23 8 -18 13 -110 15 -251 2
-211 1 -225 -19 -265 -13 -25 -30 -44 -42 -47 -26 -4 -53 -29 -71 -63 -8 -15
-27 -34 -43 -43 -16 -8 -53 -40 -83 -71 -29 -31 -70 -67 -90 -80 -21 -13 -38
-30 -38 -37 0 -20 -41 -54 -72 -62 -17 -5 -28 -14 -28 -25 0 -9 -10 -30 -21
-44 -20 -25 -27 -27 -78 -25 -59 4 -57 5 -44 -42 15 -54 -62 -63 -501 -58
-293 4 -327 6 -343 22 -15 14 -16 22 -6 48 15 39 4 44 -94 36 -113 -9 -182 24
-148 70 8 10 15 21 15 26 0 4 -38 7 -85 7 -122 0 -164 25 -135 79 8 16 4 19
-32 24 -23 3 -55 3 -70 0 -18 -3 -37 1 -54 12 -22 14 -25 22 -21 51 6 34 5 34
-32 34 -20 0 -57 10 -81 23 -37 18 -45 27 -43 48 2 33 -31 50 -80 42 -48 -7
-71 18 -63 69 l6 38 -44 -6 c-36 -5 -47 -3 -65 15 -17 17 -21 29 -16 52 6 28
6 29 -32 29 -44 0 -83 31 -83 67 0 14 -9 23 -27 28 -41 10 -73 44 -73 77 0 24
-4 28 -28 28 -36 0 -72 37 -72 73 0 22 -4 27 -26 27 -31 0 -84 50 -84 79 0 14
-6 21 -19 21 -36 0 -75 44 -75 83 0 33 -2 36 -23 31 -14 -4 -34 1 -48 10 -21
14 -25 24 -25 66 l0 49 -35 -6 c-49 -8 -65 9 -65 68 l0 49 -40 0 c-43 0 -60
18 -60 63 0 48 -20 86 -47 89 -38 4 -68 51 -67 103 l1 43 -36 -5 c-48 -7 -64
13 -65 80 -1 52 -1 52 -31 49 -16 -1 -36 2 -43 6 -6 5 -18 43 -24 85 l-13 77
-37 0 c-51 0 -67 32 -60 114 4 55 3 59 -14 51 -39 -15 -51 -16 -60 -3 -16 21
-34 92 -34 136 l0 40 -29 -11 c-25 -9 -33 -8 -50 8 -18 15 -21 30 -21 97 l0
79 -35 -7 c-31 -5 -36 -3 -55 27 -17 28 -20 44 -15 86 4 29 3 62 0 74 -6 19
-8 19 -19 4 -7 -10 -22 -15 -36 -13 -30 4 -48 56 -49 141 -1 55 -2 57 -22 47
-31 -17 -62 -8 -70 20 -4 14 -7 62 -8 108 l-1 82 -39 -6 c-51 -8 -58 6 -67
130 -5 68 -10 94 -18 86 -17 -17 -63 -12 -71 8 -4 9 -10 72 -13 140 -4 114 -6
122 -22 107 -25 -22 -47 -18 -67 12 -15 22 -17 45 -15 129 3 104 -5 128 -33
104 -18 -15 -51 -5 -60 18 -4 9 -9 79 -12 155 -6 126 -12 154 -28 127 -11 -17
-43 -11 -59 12 -10 14 -16 44 -16 78 0 30 -3 72 -6 93 -6 33 -10 37 -38 37
-33 1 -138 24 -155 35 -16 9 -13 45 4 51 43 17 -1 24 -145 24 -88 0 -160 -2
-160 -5z"/>
</g>
</svg>
